<svg id="Layer_1" data-name="Layer 1" xmlns="http://www.w3.org/2000/svg" viewBox="0 0 828 768"><defs><style>.cls-1{opacity:0.75;}.cls-2{fill:#bf6795;}.cls-3{fill:#400711;}</style></defs><title>Artboard 1</title><g class="cls-1"><path class="cls-2" d="M703.5,354.4C639.2,384.7,554,419.7,535.1,431c74.7,3.8,116.4,66.3,116.4,127.8,0,106.9-94.7,190.2-217.7,190.2-94.6,0-186.4-49.2-217.6-125.9-26.5,6.7-44.5,8.6-59.7,8.6C74.2,631.7,5.1,573,5.1,503c0-36,18-62.5,44.5-64.4-.9,15.1-1.9,28.4-1.9,39.8,0,70.9,50.2,127.7,113.6,127.7,12.3,0,28.4-1.9,45.4-4.7-6.6-31.3-8.5-51.1-8.5-69.1,0-121.1,85.1-218.6,209.1-218.6-26.5-36-33.1-52.1-33.1-88,0-89,74.8-155.2,177-155.2,80.4,0,145.7,46.4,145.7,103.1,0,40.7-36.9,78.6-78.6,78.6-34,0-53-13.3-71.9-48.3l15.2-1.9c17.9,25.6,33.1,35,57.7,35,32.2,0,62.4-29.3,62.4-63.4,0-38.8-35-66.2-83.2-66.2-78.6,0-145.8,66.2-145.8,145.7,0,38.8,7.6,61.5,52.1,92.8l2.8,10.4a316.7,316.7,0,0,0-48.2-3.8c-78.6,0-162.8,88.9-150.5,204.4,35-22.7,71.9-36,71.9-36,5.7-64.3,79.5-119.2,190.2-154.2C758.4,309,801.9,281.5,801.9,220c0-22.7-4.7-34.1-24.6-60.6l6.6-6.6C811.4,179.3,819,193.5,819,221,819,271.1,772.6,321.3,703.5,354.4ZM519.9,450c-36.9,0-54.9,12.3-84.2,53.9,29.3-6.6,39.7-9.5,53.9-9.5,44.5,0,83.3,36,83.3,76.7,0,37.8-35,67.2-81.4,67.2-52,0-106.9-33.1-109.7-99.4,0,0-40.7,18.9-69.1,39.8,10.4,70,83.3,140,161.8,140,85.2,0,157.1-72.8,157.1-159C631.6,497.3,582.4,450,519.9,450Zm-33.1,58.6c-20.8,0-38.8,7.6-58.7,15.2a106.9,106.9,0,0,0-4.7,33.1c0,39.7,29.3,66.2,69.1,66.2,32.2,0,58.7-25.5,58.7-55.8C551.2,534.2,522.8,508.6,486.8,508.6Z"/></g><path class="cls-3" d="M376.3,33.1c-28,2.1-41.4,8.4-62.5,20.7-14.3,8.2-28,34.1-45.2,69.3-6.6,12.5-16.1,34.3-16.1,47,0,4.8,2.5,10.9,7.2,10.9,9.8,0,19.8-21.1,20-21.8s1.4.2,2.5-.5c-8.8,19.1-16.1,25.7-25.7,25.7s-18.4-9.5-18.4-23.2c0-22.9,22.1-55.6,48.2-88.6a235.8,235.8,0,0,0-38.6,37.5c-22.3,27.5-44.5,64.5-55.4,76.1a8.3,8.3,0,0,1-1.2-2.9c5.5-15.7,7.5-16.2,7.5-30.9,0-50.9,2.1-58.6,15-85.9-20,20.7-37,69.5-48.6,90.7-8.6,15.6-33.4,28.6-57,28.6-34.3,0-64.1-25.2-64.1-54.5,0-33,25.2-59.1,53.9-59.1,24.5,0,44.3,17.5,44.3,39.5s-21.2,43-40.2,43-27.3-13.2-27.3-30.9c0-7.3,2.7-14.8,4.5-19.8l2.8.7c-2.1,5-4.8,12.7-4.8,19.1,0,16.8,9.8,28.4,24.8,28.4,18.1,0,37.7-18.9,37.7-40.5s-19.3-37-41.8-37c-27.8,0-51.4,26.1-51.4,56.6,0,20.4,20,52,61.6,52,25,0,44.3-21.4,58.6-47.7,27.7-50.2,43.6-79.8,64.1-92,0,0-34.8-11.8-42.5-11.8-49.1,0-48.4,32.7-48.4,36.3,0,14.3,9.5,26.4,22,26.4a17.6,17.6,0,0,0,11.6-4.8h1.4c-5.7,8.2-9.6,10.4-15.9,10.4-15,0-26.4-12.2-26.4-28.6,0-14.3,6.8-41.6,55.7-41.6,7.5,0,44.5,12.3,44.5,12.3,7.3-4.1,13.6-3.4,13.6.7s-5.4,5.2-9.7,2.7c-5.9,8.2-10,22.5-12.1,36.8s1.2,21.6-.7,34.5-6.3,22.8-8.8,30.7c38.1-55.2,67.4-79.5,96.7-96.1,21.6-12,32.1-18.8,64.8-20.9Z"/><path class="cls-3" d="M298.1,183.5c-7.9,0-14.1-4.8-14.1-13.6,0-15.5,14.8-36.6,22.7-51.1,1.6-3,2.1-4.8,6.2-4.8,6.8,0,4.5,2,7.7,2s5.9-6.1,8.6-6.8l-28.8,55a20.3,20.3,0,0,0-2.3,8.6c0,3.2,1.8,5.9,5.5,5.9,8.6,0,47.2-43.1,52.7-49.7l1.8,1.6C340.1,151.9,312.6,183.5,298.1,183.5Zm35.2-85a8.7,8.7,0,0,1-8.6-8.8,11.9,11.9,0,0,1,11.6-11.8,7.9,7.9,0,0,1,8.1,7.7C344.4,92.2,339,98.5,333.3,98.5Z"/><path class="cls-3" d="M363.8,183.5c-15.9,0-23-7.9-23-20.4,0-34.1,29.3-51.2,51.3-51.2,7.8,0,13.7,5.5,13.7,11.9s-6.6,13.4-13.7,13.4c-5.4,0-8.1-2.5-8.1-5.9a14,14,0,0,1,2.2-7.8c2.5,2.1,4.8,3,6.6,3s7.1-3.6,7.1-7.5-2.1-4.8-7.8-4.8c-14.5,0-38.6,42.3-38.6,57.9,0,5.3,4.6,8.7,10.3,8.7,19.5,0,52-12.7,80.6-51.8l1.8,1.6C420.3,166.9,389,183.5,363.8,183.5Z"/><path class="cls-3" d="M463.9,119l-4.5,10c12-11.4,23.6-17.1,29.3-17.1s9.3,4.1,9.3,9.6c0,13.2-29.8,49.1-29.8,52.7,0,2,1.2,4.1,3.2,4.1,10.7,0,36.4-32.5,50.7-49.3l1.8,1.6c-18.2,22.5-40.9,52.9-56.3,52.9-7.1,0-12.5-4.5-12.5-10.9,0-10.7,29.3-45.2,29.3-52.2,0-1-.7-2.3-1.8-2.3-7.5,0-19.1,10.2-24.1,18.2-17.5,30.4-23.2,45.4-28,45.4s-5.9-1.8-8.1-1.8-4.4,3.6-8.7,6.1c11.2-22,32.7-64.5,60.7-105.2,14.7-21.1,34.7-45.6,47-45.6,4.1,0,8.2,2.5,8.2,6.8C529.6,75.1,475.1,113.3,463.9,119Zm53.2-79.3c-8.9,0-29.1,36.4-50.4,73.2,33.6-22.3,52.7-53.4,52.7-67.5C519.4,42.4,518.4,39.7,517.1,39.7Z"/><path class="cls-3" d="M560.9,183.5c-10,0-13.6-5.4-17.2-13.4-8,10.7-14.8,13.4-21.6,13.4-8.9,0-15.5-7.5-15.5-22.5,0-20.4,21.2-49.1,50.9-49.1,4.8,0,8.2.7,11.6,5.5,0,0,2.5-3.4,4.8-3.4s6.8,1.4,9.5,1.4,5-5.3,7.5-6.2l-29.8,55.9c-3.1,5.9-3.8,8-3.8,10.5s1.6,4.5,5,4.5c8.4,0,36.8-27.3,56.5-51.1l1.9,1.6C596.6,160.1,572.3,183.5,560.9,183.5Zm0-67.5c-19.7,0-40.9,43.9-40.9,56.6,0,4.8.7,7.5,4.6,7.5,8.4,0,14.3-8.9,17.9-15,9.3-15.9,23.2-40,23.2-43.6S564.1,116,560.9,116Z"/><path class="cls-3" d="M623.4,183.5c-12.7,0-20-10-20-20.4,0-31.6,35-51.2,52-51.2a12.7,12.7,0,0,1,13,12.5c0,22.3-39.3,31.2-47.1,31.2-2.5,5.4-4,8.1-4,15.9,0,4.7,1.5,8.4,6.1,8.4,22.7,0,57-37.3,65.2-50.9l1.8,1.6C683.6,141.9,648.8,183.5,623.4,183.5Zm28.8-68.6c-6.6,0-17,12.3-28.6,35.2,12.7,0,33.4-21.6,33.4-30C657,116.7,655.4,114.9,652.2,114.9Z"/><path class="cls-3" d="M708.6,122.2c-5.3,11.6-18,35.2-18,51.1,0,2.7,2.1,5.4,4.8,5.4,12.3,0,32.9-23.8,46.3-49.7l1.8,1.6c-17.2,31.1-32.9,51.5-54.2,52.9-8.2.5-13.7-7.3-13.7-19.1,0-38.1,71.4-134.2,91.8-134.2,3.6,0,7,4.1,7,8.1C774.2,51.8,754.5,95.4,708.6,122.2Zm52.9-87.3c-7.5,0-37.9,52.7-48.2,79.8,28.4-16.6,51.4-63.6,51.4-75C764.7,37.2,763.3,34.9,761.5,34.9Z"/><path class="cls-3" d="M282.4,373.3c-34.7.7-57.7-19.5-63.1-23.4-4.8,2.5-46.1,29.1-85.4,29.1C81.4,379,43,343.3,43,294.7s32.3-81.8,80.7-81.8a40,40,0,0,1,13.1,2.7v2.8c-3.6-1.4-8.8-3-13.1-3-50.5,0-78.2,37-78.2,79.3,0,46.8,37.5,82,88.4,82,37.5,0,83.1-28.6,83.1-28.6l-8.2-7.3s-23.1,5-23.1-6.1,23.8.7,23.8.7c2.8,0,16.6-12.8,17.7-15.7,2.3-5.5,18.4-39.8,18.4-55-6.8,1.4-20.4,2.1-27.7,2.1-12.2,17.7-42.4,74.9-83.1,74.9-23.4,0-35.7-12.9-35.7-29.5,0-25.2,25.5-48.9,60.2-48.9h56.6a163.9,163.9,0,0,1,17.7-28.6c33.2-41.8,65.9-49,65.9-49s2.3,2,2.3,3.6c0,8.2-28.9,14.8-33,67.9,0,0,44.1-14.3,44.1-55.4,0-32.5-33.2-57.9-74.8-57.9-45.2,0-77,32.2-77,58.8,0,33.4,23.9,41.3,23.9,41.3l-.7,3S158,238.6,158,202.7c0-27.9,33.6-62,80.1-62,43.7,0,78,27,78,61.1,0,44.3-47.7,59.5-47.7,59.5s-1.6,13.2-2.3,16.1c-2.3,9.3-17.7,43.4-51.8,62.3l6.8,6.3c49.1-30.4,55.4-33.8,72.5-33.8S324,324,324,338.5C324,357.6,300.8,372.8,282.4,373.3ZM167.5,267.2c-31.3,0-57.7,21.6-57.7,45,0,19.3,10,26.3,25,26.3,35.7,0,65.2-51.3,78.4-71.3Zm22.9,68.2c0,5.6,12.5,2,12.5,2S190.4,330.6,190.4,335.4Zm53.4-108.2c-15.4,17.5-22.2,33-23.4,36.1,3.7,0,18.2-.6,25.5-2,5.4-35.4,42.9-66.3,38.8-66.3C279,195,257.7,211.3,243.8,227.2Zm50,88.2c-18.2,0-25,5-70.4,32.7,0,0,24.1,22,59,22,18,0,38.4-15.2,38.4-31.3C320.8,325.4,309.2,315.4,293.8,315.4Z"/><path class="cls-3" d="M343.5,324.9c-6.5,7.5-13.1,13.9-22.9,13.9s-12.5-6.2-13.2-13.9c-.2-3.4-.2-6.4,4.8-13.8L331,282.2c2.1-3.2,3.2-5.7,3.2-6.8s-.9-2.1-3.4-2.1c-6.3,0-22.9,11.4-39.5,39.3-7.3,12.1-11.1,23.9-16.4,23.9-2.9,0-5.9-2-8.4-2s-8.4,6.8-8.4,6.8l35-66.8c1.8-3.4,3.2-5.5,6.8-5.5s4.8,1.8,8,1.8,4.7-5,8.4-6.5l-11.6,21.8c15-13.2,24.1-19.1,34.1-19.1,6.3,0,10.4,4.1,10.4,10.4,0,4.1-1.1,7.3-4.3,12.3l-21.1,32.9c-2.3,3.4-4.1,6.4-4.1,7.8s1.4,4.1,4.8,4.1,11.3-5.5,18.8-13.7L376.7,284l1.8,1.6C373.5,291.5,343.5,324.9,343.5,324.9Z"/><path class="cls-3" d="M410.6,314.2c-13.5,18.2-28.9,24.3-40,24.3-6.6,0-12.1-6.8-12.1-15,0-6.3,1.8-9.7,4.8-15.6l17.9-36.1H364.4l3.7-3.5h18.4c13.4-8.6,18.6-14,35.9-40.2h2.5l-23,40.2H419l-1.4,3.5h-17l-23.7,41.3c-2.7,4.8-5.2,8.6-5.2,12s3,8.7,6.1,8.7c9.1,0,23.9-12.8,30.5-21.4,0,0,15.2-19.3,21.8-28.4l1.8,1.6C424.2,297.9,410.6,314.2,410.6,314.2Z"/><path class="cls-3" d="M449.6,274l-4.5,10c12-11.3,23.6-17,29.3-17a9.1,9.1,0,0,1,9.3,9.5c0,13.2-29.8,49.1-29.8,52.7s1.2,4.1,3.2,4.1c10.7,0,36.4-32.5,50.7-49.3l1.8,1.6c-18.2,22.5-40.9,52.9-56.3,52.9-7.1,0-12.5-4.5-12.5-10.9,0-10.6,29.3-45.2,29.3-52.2,0-.9-.7-2.3-1.9-2.3-7.5,0-19,10.2-24,18.2-17.5,30.4-23.2,45.4-28,45.4s-5.9-1.8-8.2-1.8-4.3,3.6-8.6,6.1c11.1-22,32.7-64.5,60.7-105.1,14.7-21.2,34.7-45.7,47-45.7,4.1,0,8.2,2.5,8.2,6.8C515.3,230.2,460.7,268.3,449.6,274Zm53.2-79.3c-8.9,0-29.1,36.4-50.5,73.2C486,245.6,505,214.5,505,200.4,505,197.5,504.1,194.7,502.8,194.7Z"/><path class="cls-3" d="M565.5,306.5a58.8,58.8,0,0,1-10.3,3.4c-5.4,9.1-23.6,28.6-44.9,28.6-10.7,0-17.5-10.9-17.5-21.1,0-25.9,26.3-50.4,51.5-50.4,10.5,0,18.4,9.1,18.4,21.3,0,8-3.8,14.1-5.4,18.2a29.8,29.8,0,0,0,6.8-2.5c12.3-5.7,21.6-14.3,27.5-20l1.8,1.6C588,292.2,577.3,299.9,565.5,306.5Zm-21.8-36.8c-13.7,0-37.8,42.5-37.8,58.2,0,5.2,1.2,7.7,4.4,7.7,8.4,0,16.3-7.7,28.1-27.5-9.1-3-12.5-6.8-12.5-11.1a6.9,6.9,0,0,1,7.1-7.3c2.7,0,4.8,1.4,4.8,4.8s-6.2,4.5-6.2,4.5c1.2,3.4,6.2,6.4,8.7,6.8,7-15,8.8-22.5,8.8-30.4C549.1,271.8,547.3,269.7,543.7,269.7Z"/><path class="cls-3" d="M645.9,324.9c-6.6,7.5-13.2,13.9-23,13.9s-12.5-6.2-13.1-13.9c-.3-3.4-.3-6.4,4.7-13.8l18.9-28.9c2-3.2,3.2-5.7,3.2-6.8s-.9-2.1-3.4-2.1c-6.4,0-23,11.4-39.6,39.3-7.2,12.1-11.1,23.9-16.3,23.9-3,0-5.9-2-8.4-2s-8.4,6.8-8.4,6.8l34.9-66.8c1.9-3.4,3.2-5.5,6.9-5.5s4.7,1.8,7.9,1.8,4.8-5,8.4-6.5L607,286.1c15-13.2,24.1-19.1,34.1-19.1,6.4,0,10.5,4.1,10.5,10.4,0,4.1-1.2,7.3-4.4,12.3l-21.1,32.9c-2.3,3.4-4.1,6.4-4.1,7.8s1.4,4.1,4.8,4.1,11.4-5.5,18.8-13.7L679,284l1.9,1.6C675.9,291.5,645.9,324.9,645.9,324.9Z"/><path class="cls-3" d="M737.6,314.2c-13.1,12.3-18.8,19.8-37,29.8-12.2,21.1-24.5,59.1-52,59.1-10.2,0-18.4-7.3-18.4-17.5,0-20.3,28.8-31.2,54.3-39.1l9.5-19.3c-9.5,7.3-17.2,11.3-22.5,11.3-7.2,0-12-5.9-12-15.4a35.4,35.4,0,0,1,3.9-14.1L682,274.5c1.4-2.7,4.3-5.5,6.4-5.5,4.5,0,5.6,1.8,8.8,1.8s5.5-5.6,8.2-6.5L677.7,316c-3.7,6.9-3.9,8-3.9,11.2s.9,6.3,3.4,6.3,17.1-5.4,23.2-16.3l23.8-42.7c1.4-2.5,3-5.5,6.4-5.5s4.8,1.8,8.2,1.8c1.8,0,5.7-5.6,8.4-6.5-4.3,7.7-20.9,43.6-44.5,76.3,15.9-9.8,22-18.2,33.1-28.4l30-28.2,1.8,1.6ZM632,385.3a9.2,9.2,0,0,0,9.6,9.6c10.6,0,18.6-7.7,42.2-46.1C659,357.2,632,367.2,632,385.3Z"/><path class="cls-3" d="M396.4,536.1c-1.2.2-16.9,2.2-19.1,2.2-23.6,0-70.9-27.9-104.5-27.9-20.9,0-30.7,2.3-38,4.1,4.4,5.2,24.6,34.7,24.6,61.3,0,21.1-14.1,32.5-16.6,35.2a101.8,101.8,0,0,1-32.5,52.5l-1.8-1.4c11.1-12.2,23.2-23.4,30-48.1a30.4,30.4,0,0,1-10.2,1.3c-21.4,0-37.7-19.3-37.7-44.9,0-16.6,11.5-32.7,11.5-32.7-11.3-3.4-17.5-5.5-22.9-5.5-43.6,0-77.2,35.2-77.2,78.8,0,41.8,35.4,77.5,77.2,77.5,31.3,0,59.7-20.4,71.5-52.9,22.5-61.4,18.4-78.6,46.2-93.8,9.7-5.5,24.5-8.2,39.5-9.6l-.5,2.5c-27.5,3.4-41.5,12.5-45.6,30.9s-5.9,30.7-11.6,49.1c-15.9,52.7-55.7,75.8-99.5,75.8A79.1,79.1,0,0,1,99.9,611c0-44,31.6-81.5,79.3-81.5,7.5,0,17.3,3.2,24.3,5.4,0,0,14.1-19.5,24.1-24,0,0-19.1-24.6-56.8-24.6-63.4,0-88.8,64.8-90.6,86.1l-2.1-.2c2.1-31.4,32-88.1,92.7-88.1,40.2,0,60.4,25.4,60.4,25.4,19.1-8.9,28-10.7,41.6-10.7,44.3,0,72.9,36.6,108.1,36.6,4.1,0,10-.7,18.4-2.5ZM205.8,539c-3.9,4.3-12.3,20.2-12.3,30.7,0,24.5,15.7,42.9,34.8,42.9a24.2,24.2,0,0,0,11.1-2.5C243.9,569.7,228.9,551.3,205.8,539Zm25.6-23.4c-2,1.4-11.3,5.5-24.3,20.9,26.8,14.1,38.9,31.4,36.2,70a42.3,42.3,0,0,0,12.9-30.7C256.2,549,233,517.2,231.4,515.6Z"/><path class="cls-3" d="M301.2,673.3c-8,0-14.1-4.8-14.1-13.7,0-15.4,14.8-36.5,22.7-51.1,1.6-2.9,2-4.7,6.1-4.7,6.9,0,4.6,2,7.8,2s5.9-6.1,8.6-6.8l-28.9,55a19.8,19.8,0,0,0-2.2,8.6c0,3.2,1.8,5.9,5.4,5.9,8.7,0,47.3-43.2,52.7-49.7l1.8,1.5C343.2,641.7,315.7,673.3,301.2,673.3Zm35.2-85a8.8,8.8,0,0,1-8.6-8.8c0-6.4,5.4-11.9,11.5-11.9a8,8,0,0,1,8.2,7.8C347.5,582,342.1,588.3,336.4,588.3Z"/><path class="cls-3" d="M383.6,609.9h12.5l-2.3,4.1H377.7C337.5,689.9,315,748.9,276.4,748.9c-12.9,0-22.5-8.8-22.5-20.4s10.2-23.9,21.6-23.9c5.7,0,11.1,5.5,11.1,11.6s-5.6,10.7-12.5,10.7c-2.7,0-4.7-1.2-7.5-5.9,4.8-.7,7.1-2.1,7.1-3.7s-2.1-5.9-4.8-5.9-11.8,9.6-11.8,19.1,9.1,15.9,19.3,15.9c29.1,0,43.4-59.5,83.6-132.4H346.4l2.2-4.1h13.9c11.1-19.1,47.2-77,68.8-77,4.3,0,8.9,4.3,8.9,8.4C440.2,558.6,417.7,592.2,383.6,609.9Zm43.9-73.4c-8.2,0-40.2,57.3-47.3,73.4,39.1-28.9,51.1-56.1,51.1-66.8C431.3,539,430,536.5,427.5,536.5Z"/><path class="cls-3" d="M437.5,609.9H450l-2.3,4.1H431.6c-40.3,75.9-62.7,134.9-101.4,134.9-12.9,0-22.4-8.8-22.4-20.4s10.2-23.9,21.5-23.9c5.7,0,11.2,5.5,11.2,11.6s-5.7,10.7-12.5,10.7c-2.8,0-4.8-1.2-7.5-5.9,4.7-.7,7-2.1,7-3.7s-2-5.9-4.8-5.9-11.8,9.6-11.8,19.1,9.1,15.9,19.3,15.9c29.1,0,43.4-59.5,83.6-132.4H400.2l2.3-4.1h13.8c11.2-19.1,47.3-77,68.9-77,4.3,0,8.8,4.3,8.8,8.4C494,558.6,471.5,592.2,437.5,609.9Zm43.8-73.4c-8.2,0-40.2,57.3-47.2,73.4,39-28.9,51.1-56.1,51.1-66.8C485.2,539,483.8,536.5,481.3,536.5Z"/><path class="cls-3" d="M505.8,673.3c-10,0-13.6-5.5-17.2-13.4-8,10.6-14.8,13.4-21.6,13.4-8.9,0-15.5-7.5-15.5-22.5,0-20.5,21.2-49.1,50.9-49.1,4.8,0,8.2.7,11.6,5.5,0,0,2.5-3.4,4.8-3.4s6.8,1.3,9.5,1.3,5-5.2,7.5-6.1l-29.7,55.9c-3.2,5.9-3.9,7.9-3.9,10.4s1.6,4.6,5,4.6c8.4,0,36.8-27.3,56.6-51.1l1.8,1.5C541.5,649.9,517.2,673.3,505.8,673.3Zm0-67.5c-19.7,0-40.9,43.9-40.9,56.6,0,4.7.7,7.5,4.6,7.5,8.4,0,14.3-8.9,17.9-15,9.3-15.9,23.2-40,23.2-43.6S509,605.8,505.8,605.8Z"/><path class="cls-3" d="M618,659.6c-6.5,7.5-13.1,13.9-22.9,13.9s-12.5-6.1-13.2-13.9c-.2-3.4-.2-6.3,4.8-13.8l18.9-28.9c2-3.1,3.1-5.6,3.1-6.8s-.9-2-3.4-2c-6.3,0-22.9,11.3-39.5,39.3-7.3,12-11.1,23.8-16.4,23.8-2.9,0-5.9-2-8.4-2s-8.4,6.8-8.4,6.8l35-66.8c1.8-3.4,3.2-5.4,6.8-5.4s4.8,1.8,8,1.8,4.8-5,8.4-6.6l-11.6,21.8c15-13.2,24.1-19.1,34.1-19.1,6.3,0,10.4,4.1,10.4,10.5,0,4.1-1.1,7.2-4.3,12.2l-21.1,33c-2.3,3.4-4.1,6.3-4.1,7.7s1.4,4.1,4.8,4.1,11.3-5.5,18.8-13.6l33.4-36.8,1.8,1.5C648,626.3,618,659.6,618,659.6Z"/><path class="cls-3" d="M709.8,649c-13.2,12.2-18.8,19.7-37,29.7-12.3,21.2-24.5,59.1-52,59.1-10.2,0-18.4-7.3-18.4-17.5,0-20.2,28.8-31.1,54.3-39.1l9.5-19.3c-9.5,7.3-17.3,11.4-22.5,11.4-7.3,0-12-5.9-12-15.5a37.1,37.1,0,0,1,3.8-14.1l18.7-34.5c1.3-2.7,4.3-5.4,6.3-5.4,4.6,0,5.7,1.8,8.9,1.8s5.4-5.7,8.2-6.6l-27.8,51.8c-3.6,6.8-3.8,7.9-3.8,11.1s.9,6.4,3.4,6.4,17-5.5,23.2-16.4l23.8-42.7c1.4-2.5,3-5.4,6.4-5.4s4.7,1.8,8.2,1.8c1.8,0,5.6-5.7,8.4-6.6-4.4,7.7-20.9,43.6-44.6,76.3,15.9-9.7,22.1-18.2,33.2-28.4l30-28.1,1.8,1.5ZM604.2,720.1a9.2,9.2,0,0,0,9.5,9.5c10.7,0,18.7-7.7,42.3-46.1C631.2,691.9,604.2,701.9,604.2,720.1Z"/></svg>