<svg id="Layer_1" data-name="Layer 1" xmlns="http://www.w3.org/2000/svg" viewBox="0 0 1312.4 490"><defs><style>.cls-1{opacity:0.74;}.cls-2{fill:#bf6795;}.cls-3{fill:#400711;}</style></defs><title>names</title><g class="cls-1"><path class="cls-2" d="M845.4,296.7c-46.5,21.9-108,47.2-121.6,55.4,53.9,2.7,84,47.8,84,92.2,0,77.2-68.3,137.4-157.2,137.4-68.3,0-134.6-35.6-157.1-90.9-19.2,4.8-32.2,6.1-43.1,6.1-59.5,0-109.3-42.3-109.3-92.9,0-26,12.9-45.1,32.1-46.5-.7,11-1.4,20.5-1.4,28.7,0,51.3,36.2,92.3,82,92.3,8.9,0,20.5-1.4,32.8-3.4-4.8-22.6-6.1-36.9-6.1-49.9,0-87.5,61.5-157.9,151-157.9-19.1-25.9-23.9-37.6-23.9-63.5,0-64.3,54-112.1,127.8-112.1,58.1,0,105.2,33.5,105.2,74.5,0,29.4-26.6,56.7-56.7,56.7-24.6,0-38.3-9.6-51.9-34.9l10.9-1.3c13,18.4,23.9,25.3,41.7,25.3,23.2,0,45.1-21.2,45.1-45.8,0-28-25.3-47.9-60.2-47.9-56.7,0-105.2,47.9-105.2,105.3,0,28,5.5,44.4,37.6,67l2,7.5a227.7,227.7,0,0,0-34.8-2.8c-56.7,0-117.6,64.3-108.7,147.7a279,279,0,0,1,52-26c4.1-46.5,57.4-86.1,137.3-111.4C885,263.9,916.5,244.1,916.5,199.7c0-16.4-3.4-24.6-17.8-43.8l4.8-4.8c19.8,19.2,25.3,29.4,25.3,49.3C928.8,236.6,895.3,272.8,845.4,296.7Zm-132.6,69c-26.6,0-39.6,8.9-60.8,39,21.2-4.8,28.7-6.9,39-6.9,32.1,0,60.1,26,60.1,55.4,0,27.3-25.3,48.5-58.8,48.5-37.6,0-77.2-23.9-79.3-71.7,0,0-29.3,13.6-49.8,28.7,7.5,50.5,60.1,101.1,116.8,101.1,61.5,0,113.5-52.6,113.5-114.8C793.5,399.9,757.9,365.7,712.8,365.7Zm-23.9,42.4c-15,0-28,5.5-42.4,10.9a78.9,78.9,0,0,0-3.4,24c0,28.7,21.2,47.8,49.9,47.8,23.2,0,42.4-18.5,42.4-40.3C735.4,426.5,714.9,408.1,688.9,408.1Z" transform="translate(-34.4 -91.7)"/></g><path class="cls-3" d="M982.9,211.3c-25.5,1.8-37.7,7.6-57.1,18.8-13,7.5-25.5,31.2-41.3,63.3-6,11.5-14.7,31.4-14.7,43,0,4.4,2.3,10,6.7,10,8.9,0,18-19.3,18.2-20s1.3.2,2.3-.4c-8.1,17.5-14.7,23.5-23.5,23.5s-16.8-8.7-16.8-21.2c0-21,20.2-50.8,44-80.9a215,215,0,0,0-35.2,34.2c-20.4,25.1-40.7,59-50.7,69.5a7,7,0,0,1-1-2.7c5-14.3,6.8-14.7,6.8-28.2,0-46.5,1.9-53.5,13.7-78.4-18.2,18.8-33.8,63.5-44.4,82.8-7.9,14.3-30.5,26.1-52.1,26.1-31.3,0-58.5-23-58.5-49.8,0-30.1,23-54,49.2-54,22.4,0,40.4,16,40.4,36.2s-19.3,39.2-36.7,39.2-24.9-12-24.9-28.2c0-6.7,2.5-13.5,4.1-18.1l2.5.6c-1.8,4.6-4.3,11.7-4.3,17.5,0,15.3,8.9,25.9,22.6,25.9,16.6,0,34.5-17.2,34.5-36.9s-17.7-33.9-38.2-33.9c-25.4,0-46.9,23.9-46.9,51.7,0,18.7,18.2,47.5,56.2,47.5,22.8,0,40.5-19.5,53.6-43.5,25.3-45.9,39.8-72.9,58.5-84.1,0,0-31.8-10.8-38.8-10.8-44.9,0-44.2,29.9-44.2,33.2,0,13.1,8.7,24.1,20.1,24.1a16.2,16.2,0,0,0,10.6-4.4h1.2c-5.2,7.5-8.7,9.6-14.5,9.6-13.7,0-24.1-11.2-24.1-26.2,0-13,6.2-38,50.9-38,6.8,0,40.7,11.3,40.7,11.3,6.6-3.8,12.4-3.2,12.4.6s-5,4.7-8.9,2.5c-5.4,7.4-9.2,20.5-11,33.6s1,19.7-.6,31.5-5.9,20.8-8.1,28.1c34.8-50.5,61.6-72.7,88.4-87.8,19.7-11,29.2-17.3,59.1-19.1Z" transform="translate(-34.4 -91.7)"/><path class="cls-3" d="M911.5,348.6c-7.2,0-12.8-4.3-12.8-12.4,0-14.1,13.5-33.4,20.7-46.7,1.5-2.7,1.9-4.4,5.6-4.4,6.2,0,4.2,1.9,7.1,1.9s5.4-5.6,7.9-6.2L913.6,331a17.7,17.7,0,0,0-2.1,7.9c0,2.9,1.7,5.4,5,5.4,7.9,0,43.2-39.4,48.2-45.5l1.6,1.5C949.9,319.8,924.8,348.6,911.5,348.6ZM943.7,271a8,8,0,0,1-7.9-8.1,11,11,0,0,1,10.6-10.8,7.3,7.3,0,0,1,7.5,7.1C953.9,265.2,948.9,271,943.7,271Z" transform="translate(-34.4 -91.7)"/><path class="cls-3" d="M971.5,348.6c-14.5,0-21-7.2-21-18.6,0-31.2,26.8-46.7,47-46.7,7,0,12.4,5,12.4,10.8s-6,12.2-12.4,12.2-7.5-2.3-7.5-5.4a12.2,12.2,0,0,1,2.1-7c2.2,1.8,4.3,2.7,6,2.7s6.4-3.4,6.4-6.9-1.9-4.4-7-4.4c-13.3,0-35.3,38.7-35.3,53,0,4.7,4.1,7.9,9.3,7.9,17.9,0,47.5-11.7,73.7-47.4l1.6,1.5C1023.2,333.5,994.5,348.6,971.5,348.6Z" transform="translate(-34.4 -91.7)"/><path class="cls-3" d="M1063,289.7l-4.1,9.1c11-10.3,21.6-15.5,26.8-15.5a8.4,8.4,0,0,1,8.5,8.7c0,12-27.2,44.8-27.2,48.1s1,3.8,2.9,3.8c9.7,0,33.2-29.7,46.3-45.1l1.6,1.5c-16.6,20.5-37.3,48.3-51.4,48.3-6.5,0-11.5-4.1-11.5-9.9,0-9.8,26.8-41.3,26.8-47.7,0-.9-.6-2.1-1.6-2.1-6.9,0-17.5,9.3-22,16.6-16,27.8-21.2,41.5-25.6,41.5s-5.4-1.7-7.4-1.7-4,3.3-7.9,5.6c10.1-20.1,29.9-58.9,55.4-96.1,13.5-19.3,31.7-41.7,42.9-41.7,3.8,0,7.5,2.3,7.5,6.2C1123,249.6,1073.2,284.5,1063,289.7Zm48.6-72.4c-8.1,0-26.6,33.2-46.1,66.8,30.7-20.3,48.2-48.8,48.2-61.6C1113.7,219.8,1112.8,217.3,1111.6,217.3Z" transform="translate(-34.4 -91.7)"/><path class="cls-3" d="M1151.7,348.6c-9.2,0-12.5-4.9-15.8-12.2-7.3,9.8-13.5,12.2-19.7,12.2-8.1,0-14.1-6.8-14.1-20.5,0-18.7,19.3-44.8,46.4-44.8,4.4,0,7.5.6,10.6,5,0,0,2.3-3.2,4.4-3.2s6.2,1.3,8.7,1.3,4.6-4.8,6.9-5.6l-27.2,51c-2.9,5.4-3.6,7.3-3.6,9.6s1.5,4.1,4.6,4.1c7.7,0,33.6-24.9,51.7-46.7l1.6,1.5C1184.2,327.3,1162,348.6,1151.7,348.6Zm0-61.6c-18.1,0-37.4,40.1-37.4,51.7,0,4.3.6,6.8,4.2,6.8,7.6,0,13-8.1,16.3-13.7,8.6-14.5,21.2-36.5,21.2-39.8S1154.6,287,1151.7,287Z" transform="translate(-34.4 -91.7)"/><path class="cls-3" d="M1208.7,348.6c-11.6,0-18.2-9.1-18.2-18.6,0-28.9,31.9-46.7,47.5-46.7a11.6,11.6,0,0,1,11.8,11.4c0,20.3-35.9,28.4-42.9,28.4-2.3,5-3.8,7.5-3.8,14.5,0,4.4,1.5,7.7,5.6,7.7,20.8,0,52.1-34,59.6-46.5l1.7,1.5C1263.7,310.7,1232,348.6,1208.7,348.6Zm26.4-62.6c-6,0-15.6,11.2-26.2,32.1,11.7,0,30.6-19.7,30.6-27.4C1239.5,287.6,1238,286,1235.1,286Z" transform="translate(-34.4 -91.7)"/><path class="cls-3" d="M1286.6,292.6c-4.8,10.6-16.4,32.2-16.4,46.7,0,2.5,1.8,5,4.3,5,11.2,0,30.1-21.8,42.4-45.5l1.6,1.5c-15.7,28.4-30.1,47.1-49.6,48.3-7.4.5-12.4-6.6-12.4-17.4,0-34.9,65.1-122.6,83.8-122.6,3.3,0,6.5,3.7,6.5,7.4C1346.5,228.3,1328.5,268.1,1286.6,292.6Zm48.3-79.7c-6.8,0-34.6,48.2-44,72.9,26-15.2,46.9-58.2,46.9-68.5C1337.8,215,1336.6,212.9,1334.9,212.9Z" transform="translate(-34.4 -91.7)"/><path class="cls-3" d="M897.2,522.1c-31.7.6-52.7-17.9-57.7-21.4-4.4,2.3-42.1,26.6-78,26.6-48,0-83.1-32.6-83.1-77s29.5-74.8,73.7-74.8a37.7,37.7,0,0,1,12.1,2.5v2.5c-3.4-1.2-8.1-2.7-12.1-2.7-46,0-71.4,33.8-71.4,72.5,0,42.7,34.3,74.9,80.8,74.9,34.2,0,75.9-26.2,75.9-26.2l-7.4-6.6s-21.2,4.5-21.2-5.6,21.8.6,21.8.6c2.5,0,15.1-11.6,16.2-14.3,2-5,16.8-36.3,16.8-50.2-6.2,1.2-18.7,1.8-25.3,1.8-11.2,16.2-38.8,68.5-76,68.5-21.4,0-32.6-11.8-32.6-27,0-23,23.3-44.6,55-44.6h51.7a144.5,144.5,0,0,1,16.2-26.1c30.3-38.2,60.2-44.9,60.2-44.9s2,1.9,2,3.3c0,7.5-26.3,13.5-30,62.1,0,0,40.2-13.1,40.2-50.6,0-29.7-30.3-53-68.3-53-41.3,0-70.3,29.5-70.3,53.8,0,30.5,21.8,37.8,21.8,37.8l-.7,2.7s-24-7.7-24-40.5c0-25.5,30.7-56.7,73.2-56.7,39.9,0,71.2,24.7,71.2,55.9,0,40.4-43.6,54.3-43.6,54.3s-1.4,12.1-2,14.8c-2.1,8.5-16.2,39.6-47.4,56.8l6.3,5.9c44.8-27.9,50.6-31,66.2-31s27.8,10.8,27.8,24.1C935.2,507.7,914,521.6,897.2,522.1Zm-105-97c-28.7,0-52.7,19.8-52.7,41.1,0,17.7,9.1,24.1,22.8,24.1,32.6,0,59.6-46.9,71.6-65.2Zm20.9,62.3c0,5.2,11.5,1.9,11.5,1.9S813.1,483,813.1,487.4Zm48.8-98.8c-14.1,16-20.3,30.1-21.4,33,3.4,0,16.6-.6,23.3-1.9,5-32.3,39.2-60.6,35.5-60.6S874.6,374.1,861.9,388.6Zm45.7,80.5c-16.6,0-22.8,4.6-64.4,29.9,0,0,22,20.2,54,20.2,16.4,0,35.1-13.9,35.1-28.7C932.3,478.3,921.7,469.1,907.6,469.1Z" transform="translate(-34.4 -91.7)"/><path class="cls-3" d="M953,477.9c-6,6.8-12,12.6-20.9,12.6s-11.4-5.6-12.1-12.6c-.2-3.2-.2-5.9,4.4-12.7l17.2-26.4c1.9-2.9,2.9-5.2,2.9-6.2s-.8-1.9-3.1-1.9c-5.8,0-20.9,10.4-36.1,35.9-6.6,11-10.2,21.8-14.9,21.8-2.7,0-5.4-1.8-7.7-1.8s-7.7,6.2-7.7,6.2l32-61c1.6-3.1,2.9-5,6.2-5s4.3,1.7,7.3,1.7,4.3-4.6,7.6-6.1l-10.6,20c13.7-12.1,22-17.5,31.2-17.5,5.8,0,9.5,3.8,9.5,9.6,0,3.7-1,6.6-3.9,11.2L935,475.8c-2.1,3.1-3.8,5.8-3.8,7s1.3,3.8,4.4,3.8,10.4-5,17.2-12.5l30.5-33.6,1.7,1.4C980.4,447.3,953,477.9,953,477.9Z" transform="translate(-34.4 -91.7)"/><path class="cls-3" d="M1014.3,468.1c-12.3,16.6-26.4,22.2-36.6,22.2-6,0-11-6.2-11-13.7,0-5.8,1.7-8.9,4.4-14.3l16.4-33H972.1l3.4-3.1h16.8c12.2-7.9,17-12.9,32.8-36.8h2.2l-20.9,36.8h15.5l-1.2,3.1h-15.6l-21.6,37.8c-2.4,4.3-4.7,7.8-4.7,11s2.7,7.8,5.6,7.8c8.3,0,21.8-11.6,27.8-19.5,0,0,13.9-17.6,19.9-25.9l1.7,1.4C1026.7,453.2,1014.3,468.1,1014.3,468.1Z" transform="translate(-34.4 -91.7)"/><path class="cls-3" d="M1050,431.4l-4.2,9.1c11-10.4,21.6-15.6,26.8-15.6a8.4,8.4,0,0,1,8.5,8.7c0,12.1-27.2,44.9-27.2,48.2s1,3.7,2.9,3.7c9.8,0,33.2-29.6,46.3-45l1.7,1.4c-16.6,20.6-37.4,48.4-51.5,48.4-6.5,0-11.4-4.1-11.4-10,0-9.7,26.7-41.3,26.7-47.7,0-.8-.6-2.1-1.6-2.1-6.9,0-17.5,9.4-22,16.6-16,27.8-21.2,41.5-25.5,41.5s-5.4-1.6-7.5-1.6-4,3.3-7.9,5.6c10.2-20.1,29.9-59,55.4-96.1,13.5-19.3,31.8-41.7,43-41.7,3.7,0,7.4,2.3,7.4,6.2C1109.9,391.3,1060.1,426.2,1050,431.4Zm48.5-72.5c-8.1,0-26.5,33.2-46,66.9,30.7-20.4,48.1-48.8,48.1-61.7C1100.6,361.4,1099.8,358.9,1098.5,358.9Z" transform="translate(-34.4 -91.7)"/><path class="cls-3" d="M1155.8,461a57.3,57.3,0,0,1-9.3,3.2c-5,8.3-21.6,26.1-41.1,26.1-9.8,0-16-10-16-19.3,0-23.7,24.1-46.1,47.1-46.1,9.6,0,16.8,8.3,16.8,19.5,0,7.3-3.5,12.9-5,16.6a29.7,29.7,0,0,0,6.3-2.2c11.2-5.2,19.7-13.1,25.1-18.3l1.6,1.4C1176.4,448,1166.6,455,1155.8,461Zm-19.9-33.6c-12.5,0-34.5,38.8-34.5,53.2,0,4.7,1.1,7,4,7,7.7,0,14.9-7,25.7-25.1-8.3-2.7-11.4-6.2-11.4-10.2a6.2,6.2,0,0,1,6.4-6.6c2.5,0,4.4,1.2,4.4,4.3s-5.6,4.2-5.6,4.2c1,3.1,5.6,5.8,7.9,6.2,6.4-13.7,8.1-20.5,8.1-27.8C1140.9,429.3,1139.2,427.4,1135.9,427.4Z" transform="translate(-34.4 -91.7)"/><path class="cls-3" d="M1229.3,477.9c-6,6.8-12.1,12.6-21,12.6s-11.4-5.6-12-12.6c-.2-3.2-.2-5.9,4.3-12.7l17.3-26.4c1.8-2.9,2.9-5.2,2.9-6.2s-.9-1.9-3.1-1.9c-5.8,0-21,10.4-36.2,35.9-6.6,11-10.1,21.8-14.9,21.8-2.7,0-5.4-1.8-7.7-1.8s-7.7,6.2-7.7,6.2l32-61c1.7-3.1,2.9-5,6.2-5s4.4,1.7,7.3,1.7,4.4-4.6,7.7-6.1l-10.6,20c13.7-12.1,22-17.5,31.1-17.5,5.8,0,9.6,3.8,9.6,9.6,0,3.7-1.1,6.6-4,11.2l-19.3,30.1c-2,3.1-3.7,5.8-3.7,7s1.2,3.8,4.4,3.8,10.3-5,17.2-12.5l30.5-33.6,1.6,1.4C1256.7,447.3,1229.3,477.9,1229.3,477.9Z" transform="translate(-34.4 -91.7)"/><path class="cls-3" d="M1313.1,468.1c-12,11.2-17.2,18.1-33.8,27.2-11.2,19.3-22.4,54-47.5,54-9.4,0-16.8-6.7-16.8-16,0-18.5,26.3-28.5,49.6-35.7l8.7-17.7c-8.7,6.7-15.8,10.4-20.6,10.4-6.6,0-11-5.4-11-14.1a33.8,33.8,0,0,1,3.6-12.9l17-31.5c1.2-2.5,3.9-5,5.8-5,4.1,0,5.2,1.7,8.1,1.7s5-5.2,7.5-6.1l-25.4,47.4c-3.3,6.2-3.5,7.2-3.5,10.1s.8,5.8,3.1,5.8,15.6-4.9,21.2-14.9l21.8-39c1.2-2.3,2.7-5,5.8-5s4.4,1.7,7.5,1.7c1.6,0,5.2-5.2,7.7-6.1-4,7.1-19.1,39.9-40.7,69.8,14.5-8.9,20.1-16.6,30.3-26l27.4-25.7,1.6,1.4Zm-96.5,65a8.4,8.4,0,0,0,8.7,8.7c9.8,0,17.1-7.1,38.6-42.2C1241.3,507.3,1216.6,516.5,1216.6,533.1Z" transform="translate(-34.4 -91.7)"/><path class="cls-3" d="M325.2,305.3c-1.1.2-15.4,2.1-17.5,2.1-21.5,0-64.7-25.5-95.4-25.5-19.1,0-28,2-34.7,3.7,4,4.8,22.4,31.8,22.4,56,0,19.3-12.8,29.7-15.1,32.2a94,94,0,0,1-29.7,48l-1.7-1.3c10.2-11.2,21.2-21.4,27.4-44a27.5,27.5,0,0,1-9.3,1.3c-19.5,0-34.5-17.7-34.5-41.1,0-15.2,10.6-29.9,10.6-29.9-10.4-3.1-16-5-20.9-5-39.9,0-70.6,32.2-70.6,72,0,38.2,32.4,70.8,70.6,70.8,28.6,0,54.5-18.7,65.3-48.4,20.6-56,16.9-71.8,42.2-85.7,8.9-5,22.4-7.5,36.1-8.7l-.4,2.3c-25.1,3.1-38,11.4-41.7,28.2s-5.4,28-10.6,44.8c-14.6,48.2-50.9,69.4-90.9,69.4a72.3,72.3,0,0,1-72.5-72.7c0-40.2,28.9-74.5,72.5-74.5,6.8,0,15.7,2.9,22.2,5,0,0,12.8-17.9,22-22,0,0-17.5-22.4-51.9-22.4-57.9,0-81.2,59.1-82.8,78.6l-1.9-.2c1.9-28.6,29.3-80.5,84.7-80.5,36.7,0,55.2,23.2,55.2,23.2,17.4-8.1,25.5-9.7,38-9.7,40.4,0,66.6,33.4,98.8,33.4a81.3,81.3,0,0,0,16.8-2.3ZM151,308c-3.5,4-11.2,18.5-11.2,28,0,22.5,14.4,39.3,31.8,39.3a23.2,23.2,0,0,0,10.2-2.3C185.9,336,172.2,319.2,151,308Zm23.5-21.4c-1.9,1.3-10.4,5-22.2,19.1,24.5,12.9,35.5,28.7,33,64a38.7,38.7,0,0,0,11.8-28.1C197.1,317.2,176,288.1,174.5,286.6Z" transform="translate(-34.4 -91.7)"/><path class="cls-3" d="M238.2,430.7c-7.2,0-12.8-4.4-12.8-12.5,0-14.1,13.4-33.4,20.7-46.7,1.5-2.7,1.9-4.3,5.6-4.3,6.2,0,4.2,1.8,7.1,1.8s5.4-5.6,7.9-6.2L240.3,413a18.4,18.4,0,0,0-2.1,7.9c0,2.9,1.7,5.4,5,5.4,7.9,0,43.2-39.4,48.2-45.4l1.6,1.4C276.6,401.8,251.5,430.7,238.2,430.7Zm32.2-77.6a8.1,8.1,0,0,1-7.9-8.1,11,11,0,0,1,10.6-10.8,7.3,7.3,0,0,1,7.5,7C280.6,347.3,275.6,353.1,270.4,353.1Z" transform="translate(-34.4 -91.7)"/><path class="cls-3" d="M313.6,372.8H325l-2.1,3.7H308.2c-36.8,69.3-57.3,123.3-92.6,123.3-11.8,0-20.6-8.1-20.6-18.7s9.4-21.8,19.8-21.8c5.2,0,10.1,5,10.1,10.6s-5.2,9.8-11.4,9.8c-2.5,0-4.3-1.1-6.8-5.4,4.3-.7,6.4-1.9,6.4-3.3,0-3-1.9-5.4-4.4-5.4S198,474.3,198,483s8.3,14.5,17.6,14.5c26.6,0,39.6-54.4,76.4-121H279.5l2.1-3.7h12.7c10.1-17.5,43.1-70.4,62.8-70.4,4,0,8.1,4,8.1,7.7C365.2,325.9,344.7,356.6,313.6,372.8Zm40-67.1c-7.5,0-36.7,52.3-43.2,67.1,35.7-26.4,46.7-51.3,46.7-61C357.1,308,355.9,305.7,353.6,305.7Z" transform="translate(-34.4 -91.7)"/><path class="cls-3" d="M362.7,372.8h11.5l-2.1,3.7H357.4c-36.8,69.3-57.3,123.3-92.6,123.3-11.8,0-20.6-8.1-20.6-18.7s9.4-21.8,19.8-21.8c5.1,0,10.1,5,10.1,10.6s-5.2,9.8-11.4,9.8c-2.5,0-4.3-1.1-6.8-5.4,4.3-.7,6.4-1.9,6.4-3.3,0-3-1.9-5.4-4.4-5.4s-10.8,8.7-10.8,17.4,8.3,14.5,17.7,14.5c26.6,0,39.6-54.4,76.4-121H328.7l2.1-3.7h12.6c10.2-17.5,43.2-70.4,62.9-70.4,4,0,8.1,4,8.1,7.7C414.4,325.9,393.9,356.6,362.7,372.8Zm40.1-67.1c-7.5,0-36.7,52.3-43.2,67.1,35.7-26.4,46.7-51.3,46.7-61C406.3,308,405.1,305.7,402.8,305.7Z" transform="translate(-34.4 -91.7)"/><path class="cls-3" d="M425.2,430.7c-9.1,0-12.4-5-15.8-12.3-7.2,9.8-13.4,12.3-19.7,12.3-8.1,0-14.1-6.9-14.1-20.6,0-18.6,19.3-44.8,46.5-44.8,4.4,0,7.5.6,10.6,5,0,0,2.3-3.1,4.4-3.1s6.2,1.2,8.7,1.2,4.5-4.8,6.8-5.6l-27.2,51.1c-2.9,5.4-3.5,7.2-3.5,9.5s1.5,4.2,4.6,4.2c7.6,0,33.6-24.9,51.6-46.7l1.7,1.4C457.8,409.3,435.6,430.7,425.2,430.7Zm0-61.7c-18,0-37.3,40.1-37.3,51.7,0,4.4.6,6.9,4.1,6.9,7.7,0,13.1-8.1,16.4-13.7,8.5-14.6,21.2-36.6,21.2-39.9S428.1,369,425.2,369Z" transform="translate(-34.4 -91.7)"/><path class="cls-3" d="M527.8,418.2c-6.1,6.9-12.1,12.7-21,12.7s-11.4-5.6-12-12.7c-.3-3.1-.3-5.8,4.3-12.6l17.2-26.4c1.9-2.9,2.9-5.2,2.9-6.2s-.8-1.9-3.1-1.9c-5.8,0-20.9,10.4-36.1,35.9-6.6,11-10.2,21.8-14.9,21.8-2.7,0-5.4-1.8-7.7-1.8s-7.7,6.2-7.7,6.2l32-61c1.6-3.2,2.9-5,6.2-5s4.4,1.6,7.3,1.6,4.3-4.5,7.6-6l-10.5,19.9c13.7-12,22-17.4,31.1-17.4,5.8,0,9.5,3.7,9.5,9.6,0,3.7-1,6.6-3.9,11.2l-19.3,30.1c-2.1,3.1-3.7,5.8-3.7,7s1.2,3.8,4.3,3.8,10.4-5,17.2-12.5l30.6-33.6,1.6,1.4C555.1,387.7,527.8,418.2,527.8,418.2Z" transform="translate(-34.4 -91.7)"/><path class="cls-3" d="M611.6,408.5c-12,11.2-17.2,18-33.8,27.2-11.3,19.4-22.6,54.5-48.1,53.9-8.7-.2-16.1-6.9-16.3-15.5-.4-18.8,26.2-28.8,49.6-36.1l8.8-17.7c-8.8,6.7-15.8,10.4-20.6,10.4-6.6,0-11-5.4-11-14.1a33.2,33.2,0,0,1,3.5-12.9l17.1-31.5c1.2-2.5,3.9-5,5.8-5,4.1,0,5.2,1.6,8.1,1.6s4.9-5.2,7.4-6l-25.3,47.3c-3.3,6.3-3.5,7.3-3.5,10.2s.8,5.8,3.1,5.8,15.6-5,21.2-14.9l21.8-39c1.2-2.3,2.7-5,5.8-5s4.3,1.6,7.4,1.6,5.2-5.2,7.7-6c-3.9,7.1-19.1,39.9-40.7,69.8,14.6-9,20.2-16.7,30.3-26l27.4-25.7,1.7,1.4Zm-96.5,64.9a8.4,8.4,0,0,0,8.7,8.8c9.8,0,17-7.1,38.6-42.2C539.8,447.7,515.1,456.8,515.1,473.4Z" transform="translate(-34.4 -91.7)"/></svg>