<svg id="Layer_1" data-name="Layer 1" xmlns="http://www.w3.org/2000/svg" viewBox="0 0 1366 768"><defs><style>.cls-1{opacity:0.74;}.cls-2{fill:#bf6795;}.cls-3{fill:#400711;}</style></defs><title>Artboard 1</title><g class="cls-1"><path class="cls-2" d="M922.4,296.7c-46.5,21.9-108,47.2-121.6,55.4,53.9,2.7,84,47.8,84,92.2,0,77.2-68.3,137.4-157.2,137.4-68.3,0-134.6-35.6-157.1-90.9-19.2,4.8-32.2,6.1-43.1,6.1-59.5,0-109.3-42.3-109.3-92.9,0-26,12.9-45.1,32.1-46.5-.7,11-1.4,20.5-1.4,28.7,0,51.3,36.2,92.3,82,92.3,8.9,0,20.5-1.4,32.8-3.4-4.8-22.6-6.1-36.9-6.1-49.9,0-87.5,61.5-157.9,151-157.9-19.1-25.9-23.9-37.6-23.9-63.5,0-64.3,54-112.1,127.8-112.1,58.1,0,105.2,33.5,105.2,74.5,0,29.4-26.6,56.7-56.7,56.7-24.6,0-38.3-9.6-51.9-34.9l10.9-1.3c13,18.4,23.9,25.3,41.7,25.3,23.2,0,45.1-21.2,45.1-45.8,0-28-25.3-47.9-60.2-47.9-56.7,0-105.2,47.9-105.2,105.3,0,28,5.5,44.4,37.6,67l2,7.5a227.7,227.7,0,0,0-34.8-2.8c-56.7,0-117.6,64.3-108.7,147.7a279,279,0,0,1,52-26c4.1-46.5,57.4-86.1,137.3-111.4C962,263.9,993.5,244.1,993.5,199.7c0-16.4-3.4-24.6-17.8-43.8l4.8-4.8c19.8,19.2,25.3,29.4,25.3,49.3C1005.8,236.6,972.3,272.8,922.4,296.7Zm-132.6,69c-26.6,0-39.6,8.9-60.8,39,21.2-4.8,28.7-6.9,39-6.9,32.1,0,60.1,26,60.1,55.4,0,27.3-25.3,48.5-58.8,48.5-37.6,0-77.2-23.9-79.3-71.7,0,0-29.3,13.6-49.8,28.7,7.5,50.5,60.1,101.1,116.8,101.1,61.5,0,113.5-52.6,113.5-114.8C870.5,399.9,834.9,365.7,789.8,365.7Zm-23.9,42.4c-15,0-28,5.5-42.4,10.9a78.9,78.9,0,0,0-3.4,24c0,28.7,21.2,47.8,49.9,47.8,23.2,0,42.4-18.5,42.4-40.3C812.4,426.5,791.9,408.1,765.9,408.1Z"/></g><path class="cls-3" d="M320.9,193.1c-25.5,1.9-37.7,7.7-57.1,18.9-13,7.5-25.5,31.2-41.3,63.3-6,11.4-14.7,31.4-14.7,43,0,4.3,2.3,10,6.7,10,8.9,0,18-19.4,18.2-20s1.3.2,2.3-.4c-8.1,17.4-14.7,23.5-23.5,23.5s-16.8-8.8-16.8-21.2c0-21,20.2-50.9,44-81a220.1,220.1,0,0,0-35.2,34.3c-20.4,25.1-40.7,58.9-50.7,69.5a7.6,7.6,0,0,1-1-2.7c5-14.3,6.8-14.7,6.8-28.2,0-46.5,1.9-53.5,13.7-78.5-18.2,18.9-33.8,63.6-44.4,82.9-7.9,14.3-30.5,26.1-52.1,26.1-31.3,0-58.5-23-58.5-49.8,0-30.1,23-54,49.2-54,22.4,0,40.4,16,40.4,36.1s-19.3,39.3-36.7,39.3-24.9-12.1-24.9-28.3c0-6.6,2.5-13.4,4.1-18l2.5.6c-1.8,4.6-4.3,11.6-4.3,17.4,0,15.4,8.9,26,22.6,26,16.6,0,34.5-17.2,34.5-37S87,231.1,66.5,231.1c-25.4,0-46.9,23.9-46.9,51.7,0,18.7,18.2,47.5,56.2,47.5,22.8,0,40.5-19.5,53.6-43.6,25.3-45.8,39.8-72.8,58.5-84,0,0-31.8-10.8-38.8-10.8-44.9,0-44.2,29.9-44.2,33.2,0,13.1,8.7,24.1,20.1,24.1a16.2,16.2,0,0,0,10.6-4.4h1.2c-5.2,7.5-8.7,9.6-14.5,9.6-13.7,0-24.1-11.2-24.1-26.2,0-13.1,6.2-38,50.9-38,6.8,0,40.7,11.2,40.7,11.2,6.6-3.7,12.4-3.1,12.4.7s-5,4.7-8.9,2.5c-5.4,7.4-9.2,20.5-11,33.6s1,19.7-.6,31.5-5.9,20.8-8.1,28c34.8-50.4,61.6-72.6,88.4-87.8,19.7-11,29.2-17.2,59.1-19Z"/><path class="cls-3" d="M249.5,330.5c-7.2,0-12.8-4.3-12.8-12.4,0-14.1,13.5-33.4,20.7-46.7,1.5-2.7,1.9-4.4,5.6-4.4,6.2,0,4.2,1.9,7.1,1.9s5.4-5.6,7.9-6.2l-26.4,50.2a17.7,17.7,0,0,0-2.1,7.9c0,2.9,1.7,5.4,5,5.4,7.9,0,43.2-39.5,48.2-45.5l1.6,1.5C287.9,301.7,262.8,330.5,249.5,330.5Zm32.2-77.6a8,8,0,0,1-7.9-8.1A11,11,0,0,1,284.4,234a7.2,7.2,0,0,1,7.5,7.1C291.9,247.1,286.9,252.9,281.7,252.9Z"/><path class="cls-3" d="M309.5,330.5c-14.5,0-21-7.2-21-18.6,0-31.2,26.8-46.7,47-46.7,7,0,12.4,4.9,12.4,10.7s-6,12.3-12.4,12.3-7.5-2.3-7.5-5.4a12.3,12.3,0,0,1,2.1-7.1,9.6,9.6,0,0,0,6,2.7c1.4,0,6.4-3.3,6.4-6.8s-1.9-4.4-7-4.4c-13.3,0-35.3,38.6-35.3,53,0,4.7,4.1,7.8,9.3,7.8,17.9,0,47.5-11.6,73.7-47.3l1.6,1.5C361.2,315.4,332.5,330.5,309.5,330.5Z"/><path class="cls-3" d="M401,271.6l-4.1,9.1c11-10.4,21.6-15.5,26.8-15.5a8.4,8.4,0,0,1,8.5,8.7c0,12-27.2,44.8-27.2,48.1s1,3.8,2.9,3.8c9.7,0,33.2-29.7,46.3-45.1l1.6,1.5c-16.6,20.5-37.3,48.3-51.4,48.3-6.5,0-11.5-4.1-11.5-9.9,0-9.8,26.8-41.3,26.8-47.8,0-.8-.6-2-1.6-2-6.9,0-17.5,9.3-22,16.6-16,27.8-21.2,41.5-25.6,41.5s-5.4-1.7-7.4-1.7-4,3.3-7.9,5.6c10.1-20.1,29.9-58.9,55.4-96.1,13.5-19.3,31.7-41.7,42.9-41.7,3.8,0,7.5,2.3,7.5,6.2C461,231.5,411.2,266.4,401,271.6Zm48.6-72.4c-8.1,0-26.6,33.2-46.1,66.8,30.7-20.4,48.2-48.8,48.2-61.7C451.7,201.6,450.8,199.2,449.6,199.2Z"/><path class="cls-3" d="M489.7,330.5c-9.2,0-12.5-4.9-15.8-12.2-7.3,9.7-13.5,12.2-19.7,12.2-8.1,0-14.1-6.8-14.1-20.5,0-18.7,19.3-44.8,46.4-44.8,4.4,0,7.5.6,10.6,4.9,0,0,2.3-3.1,4.4-3.1s6.2,1.3,8.7,1.3,4.6-4.8,6.9-5.6l-27.2,51c-2.9,5.4-3.6,7.3-3.6,9.6s1.5,4.1,4.6,4.1c7.7,0,33.6-24.9,51.7-46.7l1.6,1.5C522.2,309.2,500,330.5,489.7,330.5Zm0-61.6c-18.1,0-37.4,40-37.4,51.7,0,4.3.6,6.8,4.2,6.8,7.6,0,13-8.1,16.3-13.7,8.6-14.5,21.2-36.5,21.2-39.8S492.6,268.9,489.7,268.9Z"/><path class="cls-3" d="M546.7,330.5c-11.6,0-18.2-9.1-18.2-18.6,0-28.9,31.9-46.7,47.5-46.7a11.5,11.5,0,0,1,11.8,11.4c0,20.3-35.9,28.4-42.9,28.4-2.3,5-3.8,7.5-3.8,14.5,0,4.4,1.5,7.7,5.6,7.7,20.8,0,52.1-34,59.6-46.5l1.7,1.5C601.7,292.6,570,330.5,546.7,330.5Zm26.4-62.6c-6,0-15.6,11.2-26.2,32.1,11.7,0,30.6-19.7,30.6-27.4C577.5,269.5,576,267.9,573.1,267.9Z"/><path class="cls-3" d="M624.6,274.5c-4.8,10.6-16.4,32.2-16.4,46.7,0,2.5,1.8,5,4.3,5,11.2,0,30.1-21.8,42.4-45.5l1.6,1.5c-15.7,28.4-30.1,47.1-49.6,48.3-7.4.4-12.4-6.6-12.4-17.4,0-34.9,65.1-122.7,83.8-122.7,3.3,0,6.5,3.8,6.5,7.5C684.5,210.2,666.5,250,624.6,274.5Zm48.3-79.7c-6.8,0-34.6,48.1-44,72.8,26-15.1,46.9-58.1,46.9-68.4C675.8,196.9,674.6,194.8,672.9,194.8Z"/><path class="cls-3" d="M235.2,503.9c-31.7.7-52.7-17.8-57.7-21.3-4.4,2.3-42.1,26.5-78,26.5-48,0-83.1-32.6-83.1-77s29.5-74.7,73.7-74.7a37.7,37.7,0,0,1,12.1,2.5v2.5c-3.4-1.2-8.1-2.7-12.1-2.7-46,0-71.4,33.8-71.4,72.4,0,42.8,34.3,75,80.8,75,34.2,0,75.9-26.2,75.9-26.2l-7.4-6.6s-21.2,4.5-21.2-5.6,21.8.6,21.8.6c2.5,0,15.1-11.6,16.2-14.3,2-5,16.8-36.4,16.8-50.3-6.2,1.3-18.7,1.9-25.3,1.9-11.2,16.2-38.8,68.5-76,68.5-21.4,0-32.6-11.8-32.6-27,0-23,23.3-44.6,55-44.6h51.7a147.2,147.2,0,0,1,16.2-26.2c30.3-38.1,60.2-44.8,60.2-44.8s2,1.9,2,3.3c0,7.5-26.3,13.5-30,62.1,0,0,40.2-13.1,40.2-50.7,0-29.6-30.3-52.9-68.3-52.9-41.3,0-70.3,29.5-70.3,53.8,0,30.5,21.8,37.8,21.8,37.8l-.7,2.6s-24-7.6-24-40.4c0-25.6,30.7-56.7,73.2-56.7,39.9,0,71.2,24.7,71.2,55.8,0,40.5-43.6,54.4-43.6,54.4s-1.4,12.1-2,14.8c-2.1,8.5-16.2,39.6-47.4,56.8l6.3,5.8c44.8-27.8,50.6-30.9,66.2-30.9s27.8,10.8,27.8,24.1C273.2,489.6,252,503.5,235.2,503.9ZM130.2,407c-28.7,0-52.7,19.7-52.7,41.1,0,17.7,9.1,24.1,22.8,24.1,32.6,0,59.6-46.9,71.6-65.2Zm20.9,62.3c0,5.2,11.5,1.9,11.5,1.9S151.1,464.9,151.1,469.3Zm48.8-98.8c-14.1,16-20.3,30.1-21.4,33,3.4,0,16.6-.6,23.3-1.9,5-32.4,39.2-60.6,35.5-60.6C232.1,341,212.6,356,199.9,370.5ZM245.6,451c-16.6,0-22.8,4.6-64.4,29.9,0,0,22,20.1,54,20.1,16.4,0,35.1-13.9,35.1-28.6C270.3,460.2,259.7,451,245.6,451Z"/><path class="cls-3" d="M291,459.7c-6,6.9-12,12.7-20.9,12.7s-11.4-5.6-12.1-12.7c-.2-3.1-.2-5.8,4.4-12.6l17.2-26.4c1.9-2.9,2.9-5.2,2.9-6.2s-.8-1.9-3.1-1.9c-5.8,0-20.9,10.4-36.1,35.9-6.6,11-10.2,21.8-14.9,21.8-2.7,0-5.4-1.8-7.7-1.8s-7.7,6.2-7.7,6.2l32-61c1.6-3.2,2.9-5,6.2-5s4.3,1.6,7.3,1.6,4.3-4.5,7.6-6l-10.6,19.9c13.7-12,22-17.4,31.2-17.4,5.8,0,9.5,3.7,9.5,9.6,0,3.7-1,6.6-3.9,11.2L273,457.7c-2.1,3.1-3.8,5.8-3.8,7s1.3,3.8,4.4,3.8,10.4-5,17.2-12.5l30.5-33.6,1.7,1.4C318.4,429.2,291,459.7,291,459.7Z"/><path class="cls-3" d="M352.3,450c-12.3,16.6-26.4,22.2-36.6,22.2-6,0-11-6.2-11-13.7,0-5.8,1.7-8.9,4.4-14.3l16.4-33H310.1l3.4-3.1h16.8c12.2-7.9,17-12.9,32.8-36.8h2.2l-20.9,36.8h15.5l-1.2,3.1H343.1l-21.6,37.7c-2.4,4.4-4.7,7.9-4.7,11s2.7,7.9,5.6,7.9c8.3,0,21.8-11.6,27.8-19.5,0,0,13.9-17.6,19.9-25.9l1.7,1.4C364.7,435,352.3,450,352.3,450Z"/><path class="cls-3" d="M388,413.2l-4.2,9.2c11-10.4,21.6-15.6,26.8-15.6s8.5,3.7,8.5,8.7c0,12.1-27.2,44.9-27.2,48.2s1,3.7,2.9,3.7c9.8,0,33.2-29.7,46.3-45l1.7,1.4c-16.6,20.6-37.4,48.4-51.5,48.4-6.5,0-11.4-4.2-11.4-10,0-9.7,26.7-41.3,26.7-47.7,0-.8-.6-2.1-1.6-2.1-6.9,0-17.5,9.4-22,16.6-16,27.8-21.2,41.5-25.5,41.5s-5.4-1.6-7.5-1.6-4,3.3-7.9,5.6c10.2-20.2,29.9-59,55.4-96.1,13.5-19.3,31.8-41.7,43-41.7,3.7,0,7.4,2.2,7.4,6.2C447.9,373.2,398.1,408.1,388,413.2Zm48.5-72.4c-8.1,0-26.5,33.2-46,66.8,30.7-20.3,48.1-48.7,48.1-61.6C438.6,343.3,437.8,340.8,436.5,340.8Z"/><path class="cls-3" d="M493.8,442.9a48.2,48.2,0,0,1-9.3,3.1c-5,8.3-21.6,26.2-41.1,26.2-9.8,0-16-10-16-19.3,0-23.7,24.1-46.1,47.1-46.1,9.6,0,16.8,8.3,16.8,19.5,0,7.3-3.5,12.9-5,16.6a25.5,25.5,0,0,0,6.3-2.3c11.2-5.1,19.7-13,25.1-18.2l1.6,1.4C514.4,429.9,504.6,436.9,493.8,442.9Zm-19.9-33.6c-12.5,0-34.5,38.8-34.5,53.1,0,4.8,1.1,7.1,4,7.1,7.7,0,14.9-7.1,25.7-25.1-8.3-2.7-11.4-6.2-11.4-10.2a6.2,6.2,0,0,1,6.4-6.6c2.5,0,4.4,1.2,4.4,4.3s-5.6,4.2-5.6,4.2c1,3.1,5.6,5.8,7.9,6.2,6.4-13.7,8.1-20.5,8.1-27.8C478.9,411.2,477.2,409.3,473.9,409.3Z"/><path class="cls-3" d="M567.3,459.7c-6,6.9-12.1,12.7-21,12.7s-11.4-5.6-12-12.7c-.2-3.1-.2-5.8,4.3-12.6l17.3-26.4c1.8-2.9,2.9-5.2,2.9-6.2s-.9-1.9-3.1-1.9c-5.8,0-21,10.4-36.2,35.9-6.6,11-10.1,21.8-14.9,21.8-2.7,0-5.4-1.8-7.7-1.8s-7.7,6.2-7.7,6.2l32-61c1.7-3.2,2.9-5,6.2-5s4.4,1.6,7.3,1.6,4.4-4.5,7.7-6l-10.6,19.9c13.7-12,22-17.4,31.1-17.4,5.8,0,9.6,3.7,9.6,9.6,0,3.7-1.1,6.6-4,11.2l-19.3,30.1c-2,3.1-3.7,5.8-3.7,7s1.2,3.8,4.4,3.8,10.3-5,17.2-12.5l30.5-33.6,1.6,1.4C594.7,429.2,567.3,459.7,567.3,459.7Z"/><path class="cls-3" d="M651.1,450c-12,11.2-17.2,18-33.8,27.2-11.2,19.3-22.4,53.9-47.5,53.9-9.4,0-16.8-6.6-16.8-15.9,0-18.5,26.3-28.5,49.6-35.7l8.7-17.7c-8.7,6.7-15.8,10.4-20.6,10.4-6.6,0-11-5.4-11-14.1a33.8,33.8,0,0,1,3.6-12.9l17-31.5c1.2-2.5,3.9-5,5.8-5,4.1,0,5.2,1.6,8.1,1.6s5-5.1,7.5-6l-25.4,47.3c-3.3,6.3-3.5,7.3-3.5,10.2s.8,5.8,3.1,5.8,15.6-5,21.2-14.9l21.8-39c1.2-2.3,2.7-5,5.8-5s4.4,1.6,7.5,1.6c1.6,0,5.2-5.1,7.7-6-4,7.1-19.1,39.9-40.7,69.8,14.5-9,20.1-16.6,30.3-26l27.4-25.7,1.6,1.4Zm-96.5,64.9a8.5,8.5,0,0,0,8.7,8.8c9.8,0,17.1-7.1,38.6-42.2C579.3,489.2,554.6,498.3,554.6,514.9Z"/><path class="cls-3" d="M1041.2,293.4c-1.1.2-15.4,2.1-17.5,2.1-21.5,0-64.7-25.5-95.4-25.5-19.1,0-28,2.1-34.7,3.7,4,4.8,22.4,31.8,22.4,56.1,0,19.3-12.8,29.6-15.1,32.1a94,94,0,0,1-29.7,48l-1.7-1.3c10.2-11.2,21.2-21.3,27.4-44-2.5.9-4.9,1.3-9.3,1.3-19.5,0-34.5-17.7-34.5-41.1,0-15.2,10.6-29.9,10.6-29.9-10.4-3.1-16-5-20.9-5-39.9,0-70.6,32.2-70.6,72,0,38.2,32.4,70.8,70.6,70.8,28.6,0,54.5-18.7,65.3-48.4,20.6-56,16.9-71.8,42.2-85.7,8.9-5,22.4-7.4,36.1-8.7l-.4,2.3c-25.1,3.1-38,11.4-41.7,28.2s-5.4,28-10.6,44.9c-14.6,48.1-50.9,69.3-90.9,69.3a72.3,72.3,0,0,1-72.5-72.7c0-40.2,28.9-74.5,72.5-74.5,6.8,0,15.7,2.9,22.2,5,0,0,12.8-17.8,22-22,0,0-17.5-22.4-51.9-22.4-57.9,0-81.2,59.1-82.8,78.6l-1.9-.2c1.9-28.6,29.3-80.5,84.7-80.5,36.7,0,55.2,23.3,55.2,23.3,17.4-8.1,25.5-9.8,38-9.8,40.4,0,66.6,33.4,98.8,33.4a81.3,81.3,0,0,0,16.8-2.3ZM867,296.1c-3.5,4-11.2,18.5-11.2,28.1,0,22.4,14.4,39.2,31.8,39.2a21.9,21.9,0,0,0,10.2-2.3C901.9,324.2,888.2,307.3,867,296.1Zm23.5-21.3c-1.9,1.2-10.4,4.9-22.2,19.1,24.5,12.8,35.5,28.6,33,63.9a38.6,38.6,0,0,0,11.8-28C913.1,305.3,892,276.2,890.5,274.8Z"/><path class="cls-3" d="M954.2,418.8c-7.2,0-12.8-4.4-12.8-12.5,0-14.1,13.4-33.4,20.7-46.7,1.5-2.6,1.9-4.3,5.6-4.3,6.2,0,4.2,1.9,7.1,1.9s5.4-5.6,7.9-6.3l-26.4,50.3a17.7,17.7,0,0,0-2.1,7.8c0,3,1.7,5.4,5,5.4,7.9,0,43.2-39.4,48.2-45.4l1.6,1.4C992.6,390,967.5,418.8,954.2,418.8Zm32.2-77.6a8.1,8.1,0,0,1-7.9-8.1,11,11,0,0,1,10.6-10.8,7.3,7.3,0,0,1,7.5,7C996.6,335.4,991.6,341.2,986.4,341.2Z"/><path class="cls-3" d="M1029.6,360.9H1041l-2.1,3.7h-14.7c-36.8,69.4-57.3,123.3-92.6,123.3-11.8,0-20.6-8.1-20.6-18.7s9.4-21.8,19.8-21.8c5.2,0,10.1,5,10.1,10.6s-5.2,9.8-11.4,9.8c-2.5,0-4.3-1.1-6.8-5.4,4.3-.6,6.4-1.9,6.4-3.3,0-2.9-1.9-5.4-4.4-5.4S914,462.4,914,471.1s8.3,14.5,17.6,14.5c26.6,0,39.6-54.3,76.4-121H995.5l2.1-3.7h12.7c10.1-17.4,43.1-70.4,62.8-70.4,4,0,8.1,4,8.1,7.7C1081.2,314,1060.7,344.7,1029.6,360.9Zm40-67c-7.5,0-36.7,52.3-43.2,67,35.7-26.4,46.7-51.3,46.7-61C1073.1,296.1,1071.9,293.9,1069.6,293.9Z"/><path class="cls-3" d="M1078.7,360.9h11.5l-2.1,3.7h-14.7c-36.8,69.4-57.3,123.3-92.6,123.3-11.8,0-20.6-8.1-20.6-18.7s9.4-21.8,19.8-21.8c5.1,0,10.1,5,10.1,10.6s-5.2,9.8-11.4,9.8c-2.5,0-4.3-1.1-6.8-5.4,4.3-.6,6.4-1.9,6.4-3.3,0-2.9-1.9-5.4-4.4-5.4s-10.8,8.7-10.8,17.4,8.3,14.5,17.7,14.5c26.6,0,39.6-54.3,76.4-121h-12.5l2.1-3.7h12.6c10.2-17.4,43.2-70.4,62.9-70.4,4,0,8.1,4,8.1,7.7C1130.4,314,1109.9,344.7,1078.7,360.9Zm40.1-67c-7.5,0-36.7,52.3-43.2,67,35.7-26.4,46.7-51.3,46.7-61C1122.3,296.1,1121.1,293.9,1118.8,293.9Z"/><path class="cls-3" d="M1141.2,418.8c-9.1,0-12.4-5-15.8-12.2-7.2,9.7-13.4,12.2-19.7,12.2-8.1,0-14.1-6.8-14.1-20.5,0-18.7,19.3-44.9,46.5-44.9,4.4,0,7.5.6,10.6,5,0,0,2.3-3.1,4.4-3.1s6.2,1.2,8.7,1.2,4.5-4.7,6.8-5.6L1141.4,402c-2.9,5.4-3.5,7.3-3.5,9.5s1.5,4.2,4.6,4.2c7.6,0,33.6-24.9,51.6-46.7l1.7,1.4C1173.8,397.4,1151.6,418.8,1141.2,418.8Zm0-61.6c-18,0-37.3,40-37.3,51.6,0,4.4.6,6.9,4.1,6.9,7.7,0,13.1-8.1,16.4-13.7,8.5-14.5,21.2-36.5,21.2-39.9S1144.1,357.2,1141.2,357.2Z"/><path class="cls-3" d="M1243.8,406.3c-6.1,6.9-12.1,12.7-21,12.7s-11.4-5.6-12-12.7c-.3-3.1-.3-5.8,4.3-12.6l17.2-26.4c1.9-2.9,2.9-5.2,2.9-6.2s-.8-1.9-3.1-1.9c-5.8,0-20.9,10.4-36.1,35.9-6.6,11-10.2,21.8-14.9,21.8-2.7,0-5.4-1.8-7.7-1.8s-7.7,6.2-7.7,6.2l32-61c1.6-3.1,2.9-5,6.2-5s4.4,1.7,7.3,1.7,4.3-4.6,7.6-6.1l-10.5,20c13.7-12.1,22-17.5,31.1-17.5,5.8,0,9.5,3.8,9.5,9.6,0,3.7-1,6.6-3.9,11.2l-19.3,30.1c-2.1,3.1-3.7,5.8-3.7,7s1.2,3.8,4.3,3.8,10.4-5,17.2-12.5l30.6-33.6,1.6,1.4C1271.1,375.8,1243.8,406.3,1243.8,406.3Z"/><path class="cls-3" d="M1327.6,396.6c-12,11.2-17.2,18.1-33.8,27.2-11.3,19.4-22.6,54.5-48.1,53.9-8.7-.1-16.1-6.8-16.3-15.5-.4-18.8,26.2-28.8,49.6-36.1l8.8-17.7c-8.8,6.7-15.8,10.4-20.6,10.4-6.6,0-11-5.4-11-14.1a33.2,33.2,0,0,1,3.5-12.9l17.1-31.5c1.2-2.5,3.9-5,5.8-5,4.1,0,5.2,1.7,8.1,1.7s4.9-5.2,7.4-6.1l-25.3,47.4c-3.3,6.2-3.5,7.2-3.5,10.1s.8,5.8,3.1,5.8,15.6-4.9,21.2-14.9l21.8-39c1.2-2.3,2.7-5,5.8-5s4.3,1.7,7.4,1.7,5.2-5.2,7.7-6.1c-3.9,7.1-19.1,39.9-40.7,69.8,14.6-9,20.2-16.6,30.3-26l27.4-25.7,1.7,1.4Zm-96.5,65a8.4,8.4,0,0,0,8.7,8.7c9.8,0,17-7.1,38.6-42.2C1255.8,435.8,1231.1,445,1231.1,461.6Z"/></svg>