<svg id="Layer_2" data-name="Layer 2" xmlns="http://www.w3.org/2000/svg" viewBox="0 0 1366 768"><defs><style>.cls-1{fill:#400711;}.cls-2{fill:#c85992;}</style></defs><title>Artboard 1</title><path class="cls-1" d="M439.9,246.6c0,13.4,0,24.5.7,30.3.4,4.1,1.3,7.2,5.4,7.7a59.4,59.4,0,0,0,6.3.6c.9,0,1.1.4,1.1.8s-.7,1.1-2.2,1.1c-7.7,0-16.5-.4-17.2-.4s-9.5.4-13.7.4c-1.5,0-2.2-.2-2.2-1.1s.3-.8,1.1-.8a19.3,19.3,0,0,0,4.2-.6c2.8-.5,3.5-3.6,4.1-7.7.7-5.8.7-16.9.7-30.3V187.5l-20.7.3c-8.7.2-12,1.1-14.3,4.5a23.8,23.8,0,0,0-2.3,4.3c-.5,1.1-.9,1.4-1.4,1.4s-.7-.4-.7-1.2,2.8-13.4,3-14.6.9-2.6,1.4-2.6,2.4,1.4,6.2,1.7,9.3.7,11,.7h52.4a56.9,56.9,0,0,0,9.9-.7l3.9-.7c.7,0,.7.8.7,1.6,0,4.2-.4,13.9-.4,15.4s-.4,1.8-1,1.8-.9-.4-1.1-2.4v-1.5c-.4-4.2-3.8-7.4-17.2-7.7l-17.6-.3Z"/><path class="cls-1" d="M511.8,252.6c0,11.5,0,20.8.6,25.7s.8,5.8,4.5,6.3a45.5,45.5,0,0,0,5.5.6.9.9,0,0,1,1,1c0,.5-.5.9-1.9.9-6.9,0-14.8-.4-15.4-.4s-8.4.4-12.2.4c-1.2,0-1.9-.2-1.9-.9a.9.9,0,0,1,1-1,15.9,15.9,0,0,0,3.7-.6c2.4-.5,2.8-2.8,3.3-6.3s.7-14.2.7-25.7V231.7c0-18.5,0-21.8-.3-25.6s-1.3-5.8-3.9-6.4a20.4,20.4,0,0,0-3.8-.4,1.1,1.1,0,0,1-1-1c0-.7.6-1,2-1l12.4.3,12.3-.3c1.4,0,1.9.3,1.9,1a1.2,1.2,0,0,1-.9,1,12.8,12.8,0,0,0-3.1.3c-3.4.7-4.1,2.3-4.3,6.5s-.2,7.1-.2,25.6Z"/><path class="cls-1" d="M552.2,231.7c0-18.5,0-21.8-.3-25.6s-1-6-5-6.5a28.6,28.6,0,0,0-4.2-.3,1.3,1.3,0,0,1-1-1c0-.7.6-1,2-1,5.6,0,13.2.3,13.9.3h31.9c2.4-.1,4.5-.1,5.6-.6s1.2-.7,1.6-.7.9.6.9,1.2-.6,2.2-1,5.5c-.1,1.2-.3,6.5-.5,7.9s-.6,1.2-1.2,1.2-.9-.5-.9-1.4a13.3,13.3,0,0,0-1.2-4.4c-.7-1.6-3.6-3.5-8.3-3.5l-20.2-.3c-.7,0-.9.3-.9,1.2v32.5c0,.6,0,1.1.8,1.1l16.8-.2h5.6c2.9-.3,4.6-.7,5.7-2.1s1.1-1.3,1.5-1.3.7.5.7,1a56.5,56.5,0,0,0-1.1,6.6c-.3,2.4-.4,7.1-.4,7.9s-.3,2.4-1.1,2.4-.9-.5-.9-1.1a17.1,17.1,0,0,0-.8-4.3c-.6-1.7-2.5-3.2-6.3-3.8s-17.6-.3-19.7-.3-.8.3-.8,1.1v9.5c0,11.8,0,21.1.5,25.7s1.1,5.8,4.5,6.3a46.9,46.9,0,0,0,5.6.6.9.9,0,0,1,1,1c0,.5-.6.9-2,.9-6.8,0-14.8-.4-15.4-.4s-8.3.4-12.1.4c-1.3,0-2-.2-2-.9a.9.9,0,0,1,1-1,25,25,0,0,0,3.8-.6c2.4-.4,2.6-2.8,3.2-6.3s.7-14.2.7-25.7Z"/><path class="cls-1" d="M626.9,231.7c0-18.5,0-21.8-.3-25.6s-.9-6-5-6.5a28.6,28.6,0,0,0-4.2-.3,1.3,1.3,0,0,1-1-1c0-.7.6-1,2-1,5.6,0,13.3.3,14,.3h31.8c2.4-.1,4.5-.1,5.6-.6s1.3-.7,1.7-.7.8.6.8,1.2-.5,2.2-1,5.5c-.1,1.2-.2,6.5-.5,7.9s-.6,1.2-1.1,1.2-1-.5-1-1.4a12.8,12.8,0,0,0-1.1-4.4c-.7-1.6-3.7-3.5-8.4-3.5l-20.1-.3c-.7,0-1,.3-1,1.2v32.5c0,.6,0,1.1.8,1.1l16.8-.2h5.6c2.9-.3,4.6-.7,5.7-2.1s1.1-1.3,1.5-1.3.7.5.7,1a56.5,56.5,0,0,0-1.1,6.6c-.3,2.4-.4,7.1-.4,7.9s-.3,2.4-1.1,2.4-.9-.5-.9-1.1a13.5,13.5,0,0,0-.8-4.3c-.6-1.7-2.5-3.2-6.3-3.8s-17.6-.3-19.7-.3-.8.3-.8,1.1v9.5c0,11.8,0,21.1.5,25.7s1.2,5.8,4.5,6.3a46.9,46.9,0,0,0,5.6.6.9.9,0,0,1,1,1c0,.5-.6.9-2,.9-6.8,0-14.8-.4-15.3-.4s-8.4.4-12.2.4c-1.2,0-1.9-.2-1.9-.9s.2-1,.9-1a23.2,23.2,0,0,0,3.8-.6c2.4-.4,2.7-2.8,3.2-6.3s.7-14.2.7-25.7Z"/><path class="cls-1" d="M716.6,199.7c1.5-3.9,2.1-4.6,2.9-4.6s1.7,1.7,3,4.3c2.2,5,21.9,54.1,29.4,72.1,4.5,10.6,7.8,12.1,10.5,13a19.2,19.2,0,0,0,4.9.7c.7,0,1.5.3,1.5,1s-1.4.9-2.8.9-10.9,0-19.4-.2c-2.4-.2-4.3-.2-4.3-.9s.3-.5.8-.8a2.2,2.2,0,0,0,1.1-3.2l-11-27.3c-.3-.5-.4-.7-1.1-.7H703.7c-.5,0-.9.3-1.2,1l-7,19a24.9,24.9,0,0,0-1.8,8c0,2.3,2.1,3.2,4.2,3.2H699c1,0,1.2.4,1.2,1s-.7.9-1.8.9c-2.9,0-9.6-.4-11-.4s-7.4.4-12.4.4c-1.6,0-2.4-.2-2.4-.9a1,1,0,0,1,1.1-1l3.6-.3c5.6-.7,8-4.9,10.4-10.9Zm13.7,49.4c.5,0,.5-.2.4-.8l-12.2-32.5q-1.1-2.9-2.1,0L705,248.3c-.1.6,0,.8.4.8Z"/><path class="cls-1" d="M790.2,270.9c.3,9.8,1.4,12.7,4.7,13.6a35.1,35.1,0,0,0,6.2.7,1,1,0,0,1,1,1c0,.7-.9.9-2.3.9-7,0-11.8-.4-13-.4s-6.2.4-11.8.4c-1.3,0-2-.1-2-.9a.9.9,0,0,1,1-1,21.8,21.8,0,0,0,5-.7c3.1-.9,3.5-4.1,3.5-14.8V201.6c0-4.7.7-6,1.7-6s3.5,2.4,4.7,3.7,19.9,20.9,38.9,40.5c12.1,12.6,25.2,26.7,29,30.6l-1.2-59.5c-.2-7.7-.9-10.4-4.6-11.1a41.6,41.6,0,0,0-6.1-.5c-.8,0-.9-.7-.9-1.1s.9-.9,2.3-.9c5.6,0,11.5.3,12.9.3s5.4-.3,10.5-.3c1.2,0,2.2.2,2.2.9a1.4,1.4,0,0,1-1.4,1.1,12.6,12.6,0,0,0-2.9.3c-4.1.8-4.4,3.2-4.4,10.3l-.2,69.6c0,7.8-.2,8.5-1,8.5s-2.5-1-9.4-7.3c-1.2-1.1-19-18.6-32-32.1s-28-29.5-31.8-33.7Z"/><path class="cls-1" d="M915.3,256.3c0-6.5-.8-8.8-2.6-12.2-1-1.8-17.6-28.2-21.8-34.5a29.5,29.5,0,0,0-8.1-8.6,11.1,11.1,0,0,0-5.2-1.7,1.2,1.2,0,0,1-1.2-1.1c0-.6.4-.9,1.5-.9l12.2.3c.8,0,5.8-.3,10.6-.3,1.4,0,1.6.3,1.6.9s-.8.8-1.9,1.2a2,2,0,0,0-1.5,2c0,1.6.8,3,1.6,4.6l22.4,37c2.5-5,17.9-30.5,20.1-34.4a12.9,12.9,0,0,0,2.1-6.1c0-1.7-.6-2.7-2-3.1s-1.8-.8-1.8-1.4.7-.7,2-.7c3.2,0,7.5.3,8.5.3l12-.3c.8,0,1.5.3,1.5.7a1.4,1.4,0,0,1-1.5,1.3,12.4,12.4,0,0,0-5.7,1.5c-2.4,1.4-3.5,2.7-6.2,5.9-4,4.7-21.3,32.7-23.9,37.7s-1.5,8-1.5,11.9v10.2c0,1.9,0,6.9.4,11.8s1.1,5.8,4.8,6.3a43,43,0,0,0,5.6.6c.7,0,.9.5.9,1s-.7.9-1.9.9c-6.9,0-14.8-.4-15.5-.4s-8.4.4-12,.4c-1.4,0-2-.2-2-.9a.9.9,0,0,1,1-1,15.1,15.1,0,0,0,3.6-.6c2.5-.5,3.4-2.8,3.7-6.3s.2-9.9.2-11.8Z"/><path class="cls-2" d="M493,324.5a11.5,11.5,0,0,1,8.1-.4,18.9,18.9,0,0,1,6.1,3.4,24.5,24.5,0,0,1,3,3.1l6.6-7.8a1.8,1.8,0,0,1,1.5-.8,2.3,2.3,0,0,1,1.6.4,2.1,2.1,0,0,1,.7,2.4c-.1.5-.3,1.8-.7,3.9a39.6,39.6,0,0,0-.5,7.1,17.5,17.5,0,0,0,1.7,6.9,6.6,6.6,0,0,0,5.2,3.7,32.3,32.3,0,0,0,11.5-1.7,87.6,87.6,0,0,0,13.4-5.1l11-5.5,4.7-2.5a2,2,0,0,1,1.5-.2,1.9,1.9,0,0,1,1.4,1.1,1.4,1.4,0,0,1,.3,1.5,2.8,2.8,0,0,1-1,1.4l-4.9,2.6q-4.7,2.5-11.7,5.7a111.6,111.6,0,0,1-14.2,5.4,33,33,0,0,1-12.5,1.7c-4.8-.9-7.8-3.3-9.2-7.3a27.6,27.6,0,0,1-1.3-12.1c-3.5,4.2-7.8,9-12.9,14.3a77.1,77.1,0,0,1-14.1,12.2c-3,1.8-5.4,2.7-7.3,2.5a5.1,5.1,0,0,1-4.2-2.5,9.2,9.2,0,0,1-1-5.1c.4-4.7,3.1-11.2,8.3-19.6C487.1,328.6,490.1,325.7,493,324.5Zm13.9,9.1c0-.2-.2-.5-.7-1a21.2,21.2,0,0,0-2.1-2,14,14,0,0,0-3.2-1.8,7.7,7.7,0,0,0-4-.5,8,8,0,0,0-4.5,1.9,20.1,20.1,0,0,0-4.7,5.4c-4.6,7.7-7.1,13.5-7.5,17.5a3.7,3.7,0,0,0,.4,2.6l.5.4a11.2,11.2,0,0,0,5-1.9,71.5,71.5,0,0,0,10.5-8.7c3.8-3.8,7.4-7.7,10.7-11.6Z"/><path class="cls-2" d="M568.2,328.8a2.2,2.2,0,0,1,1.6,0,1.7,1.7,0,0,1,1.3,1,2.8,2.8,0,0,1,0,1.8l-8.4,22.1c4.5-3.4,10.2-7.4,17.2-12A177.3,177.3,0,0,1,600,330.1c6.4-3.2,11.3-4.3,14.4-3.5s4,2.7,4.3,4.7a12.8,12.8,0,0,1-1,6.7c-.7,1.7-1.5,3.4-2.4,5.3a59.1,59.1,0,0,0-2.5,5.7c-.6,1.7-.6,2.7.2,3.2s4.5.2,8.7-1.6a150,150,0,0,0,13.8-7c4.8-2.8,9.1-5.3,12.7-7.6l5.5-3.5a2.4,2.4,0,0,1,1.8-.4,2,2,0,0,1,1.3.9,2.9,2.9,0,0,1,.3,1.8,1.6,1.6,0,0,1-1,1.3c-.1.2-2.1,1.4-5.9,3.8s-8.4,5-13.7,7.9a107.1,107.1,0,0,1-15.2,7.1q-7.2,2.6-10.5,1.2c-2.5-1.6-3.4-3.7-2.8-6.3a38.1,38.1,0,0,1,3.3-8.4c.9-1.7,1.7-3.3,2.4-4.9a10,10,0,0,0,.7-3.6,2.2,2.2,0,0,0-1.4-2.1c-2.5-.7-6.4.3-11.8,3.1a165,165,0,0,0-17.5,10.5c-6.2,4.1-11.6,7.9-16.3,11.3l-8,6a2.2,2.2,0,0,1-3.5-.8,2.5,2.5,0,0,1,0-1.7l11.2-29.3A2.3,2.3,0,0,1,568.2,328.8Z"/><path class="cls-2" d="M695.6,335.6c14.5-14.3,31.7-31.8,51.7-52.7s39.6-41.6,59.1-62.3,35.5-37.5,48.8-51,20.9-20.1,22.7-19.6-.2,4.9-5.3,11.5q-20.9,26.7-53.7,79.9a949,949,0,0,0-58.2,110.1q-15.7,35.8-22.1,65.2t2,46.1c-.3,2.8-1.5,3.5-3.9,2-5.9-11.9-6.8-28-2.5-48.1s11.7-42.5,22.5-67a921.7,921.7,0,0,1,55.4-105.4q31.2-51.2,52.8-80l-7.8,8.6-47.6,50.8c-26.9,28.6-53.4,56.5-79.5,83.4s-44.2,44.5-54.3,52.2-17.5,9.5-22.3,7.9a9,9,0,0,1-6.2-5.1,15.8,15.8,0,0,1-1.7-8.4,34.9,34.9,0,0,1,4.2-15.1,42.4,42.4,0,0,1,11.2-13.8c6.3-4.8,12-7.4,17-8.1a15.6,15.6,0,0,1,10,1.9,14.6,14.6,0,0,1,6.2,7.7A25.9,25.9,0,0,1,695.6,335.6Zm-5.5-7.7a11.2,11.2,0,0,0-4.4-5.7,12.1,12.1,0,0,0-7.3-1.1c-4.1.4-9.1,2.8-14.8,7.2a38,38,0,0,0-10,12.3,32.3,32.3,0,0,0-3.7,13.3,12.1,12.1,0,0,0,1.1,6.2,5.7,5.7,0,0,0,3.5,2.9c3.6,1.2,9.8-1.2,18.6-7.1a207.9,207.9,0,0,0,17.6-15.6C691.5,335.3,691.3,331.2,690.1,327.9Z"/><path class="cls-1" d="M475.9,470.3c.5,5,1.5,12.8,7.5,14.8a31.9,31.9,0,0,0,9.1,1.2c.7,0,1.1.2,1.1.7s-1.3,1.3-2.9,1.3-18.2-.2-23.4-.6c-3.2-.3-3.9-.7-3.9-1.4s.3-.8,1-1,.9-2.5.6-5l-6.7-72.5h-.5l-34.2,72.7c-2.9,6.1-3.3,7.4-4.6,7.4s-1.7-1.4-4.3-6.5c-3.6-6.8-15.7-31-16.4-32.4s-16.9-36-18.4-39.8h-.6L373.8,474c-.2,2.3-.2,4.8-.2,7.1a4.6,4.6,0,0,0,3.7,4.4,29.3,29.3,0,0,0,5.3.7c.5,0,1.1.3,1.1.7s-.9,1.2-2.5,1.2c-5.2,0-11.9-.4-13-.4s-8,.4-11.8.4c-1.4,0-2.3-.2-2.3-1.2s.7-.7,1.4-.7a19,19,0,0,0,4.2-.4c4.6-.9,5-6.3,5.5-11.6l10.1-91.1c.1-1.5.7-2.5,1.5-2.5s1.4.5,2.1,2.1l42.8,87.8,41-87.7c.6-1.2,1.2-2.2,2.1-2.2s1.4,1.1,1.7,3.8Z"/><path class="cls-1" d="M526.6,453.6c0,11.5,0,20.8.5,25.7s.9,5.8,4.5,6.3a46.9,46.9,0,0,0,5.6.6.9.9,0,0,1,1,1c0,.5-.6.9-2,.9-6.8,0-14.8-.4-15.4-.4s-8.3.4-12.1.4c-1.3,0-2-.2-2-.9a.9.9,0,0,1,1-1,16.7,16.7,0,0,0,3.8-.6c2.4-.5,2.8-2.8,3.2-6.3s.7-14.2.7-25.7V432.7c0-18.5,0-21.8-.3-25.6s-1.2-5.8-3.9-6.4a19.6,19.6,0,0,0-3.8-.4,1.2,1.2,0,0,1-1-1c0-.7.6-1,2-1l12.4.3,12.3-.3c1.4,0,2,.3,2,1a1.3,1.3,0,0,1-1,1,13.2,13.2,0,0,0-3.1.3c-3.3.7-4,2.3-4.3,6.5s-.1,7.1-.1,25.6Z"/><path class="cls-1" d="M568.7,477c-12-10.4-14.9-23.9-14.9-35.2a46.7,46.7,0,0,1,13.8-32.4c7.4-7.2,18.6-12.8,37.5-12.8a132.1,132.1,0,0,1,17.8,1.4,89.8,89.8,0,0,0,12.6,1.9c1.3,0,1.5.5,1.5,1.2s-.2,2.4-.5,6.7-.2,10.5-.3,12.2-.7,2.5-1.4,2.5-1-.9-1-2.5c0-4.6-1.9-9.4-5.1-11.9s-13.3-6.6-24.2-6.6c-15.8,0-23.3,4.2-27.7,8.3-9,8.4-11,19-11,31,0,22.7,18,43,44.3,43,9.2,0,15.4-.7,20.2-5.6,2.7-2.6,4.4-7.7,4.8-9.9s.4-1.7,1.2-1.7,1.2.9,1.2,1.7a118.9,118.9,0,0,1-3,15.2c-.7,2.3-.9,2.7-3,3.5-5.1,2-14.3,2.7-22.3,2.7C590.8,489.7,578.4,485.3,568.7,477Z"/><path class="cls-1" d="M741.7,453.6c0,11.5.1,20.8.7,25.7s.7,5.8,4.4,6.3a45.5,45.5,0,0,0,5.5.6,1,1,0,0,1,1.1,1c0,.5-.7.9-2.1.9-6.7,0-14.5-.4-15.2-.4s-8.5.4-12.2.4c-1.4,0-1.9-.2-1.9-.9s.2-1,.9-1a15.1,15.1,0,0,0,3.7-.6c2.5-.5,2.9-2.9,3.3-6.4s.6-13.8.6-25.3V442a.6.6,0,0,0-.7-.7H678.5a.6.6,0,0,0-.7.7v11.9c0,11.5,0,20.5.6,25.4s.8,5.8,4.5,6.3a45.5,45.5,0,0,0,5.5.6.9.9,0,0,1,1,1c0,.5-.5.9-1.9.9-6.9,0-14.7-.4-15.3-.4s-8.5.4-12.3.4c-1.2,0-1.9-.2-1.9-.9a.9.9,0,0,1,1-1,15.9,15.9,0,0,0,3.7-.6c2.4-.5,2.7-2.8,3.3-6.3s.7-14.2.7-25.7V432.7c0-18.5,0-21.8-.3-25.6s-1-6-5.1-6.5a26.3,26.3,0,0,0-4.1-.3,1.2,1.2,0,0,1-1-1c0-.7.5-1,1.9-1,5.6,0,13.4.3,14.1.3l12.2-.3c1.4,0,1.9.3,1.9,1a1.2,1.2,0,0,1-.9,1,12.8,12.8,0,0,0-3.1.3c-3.4.7-4.1,2.3-4.3,6.5s-.2,7.4-.2,25.9v2.5c0,.7.3.7.7.7h51.3c.4,0,.7,0,.7-.7V433c0-18.5-.2-22.1-.3-25.9s-.8-6-4.9-6.5a28.6,28.6,0,0,0-4.2-.3,1.2,1.2,0,0,1-1-1c0-.7.6-1,2-1,5.5,0,13.4.3,14,.3l12.1-.3c1.4,0,2.1.3,2.1,1a1.2,1.2,0,0,1-1.1,1,14.1,14.1,0,0,0-3.1.3c-3.2.7-3.9,2.3-4.2,6.5s-.2,7.1-.2,25.6Z"/><path class="cls-1" d="M803.7,400.7c1.5-3.9,2.1-4.6,2.9-4.6s1.7,1.7,2.9,4.3c2.3,5,22,54.1,29.5,72.1,4.5,10.6,7.8,12.1,10.5,13a19.2,19.2,0,0,0,4.9.7c.7,0,1.5.3,1.5,1s-1.4.9-2.8.9-10.9,0-19.4-.2c-2.4-.2-4.3-.2-4.3-.9s.2-.5.8-.8a2.2,2.2,0,0,0,1.1-3.2l-11-27.3c-.3-.5-.4-.7-1.1-.7H790.8a1.2,1.2,0,0,0-1.2,1l-7,19a24.9,24.9,0,0,0-1.8,8c0,2.3,2.1,3.2,4.2,3.2h1.1c.9,0,1.2.4,1.2,1s-.7.9-1.8.9c-2.9,0-9.6-.4-11-.4s-7.4.4-12.5.4c-1.5,0-2.3-.2-2.3-.9a1,1,0,0,1,1.1-1l3.6-.3c5.6-.7,8-4.9,10.4-10.9Zm13.7,49.4c.5,0,.5-.2.4-.8l-12.2-32.5q-1.1-2.9-2.1,0l-11.4,32.5c-.2.6,0,.8.4.8Z"/><path class="cls-1" d="M872.1,432.7c0-18.5,0-21.8-.3-25.6s-1-6-5-6.5a28.6,28.6,0,0,0-4.2-.3,1.3,1.3,0,0,1-1-1c0-.7.6-1,2-1,5.6,0,13.5.3,14.2.3h29.4c2.3-.1,4.6-.6,5.6-.7s1.1-.6,1.6-.6.6.6.6,1.2-.7,2.2-1,5.5c-.1,1.2-.4,6.5-.7,7.9s-.5,1.2-1.1,1.2-1-.5-1-1.5a12.2,12.2,0,0,0-.7-4.2c-.8-2-2.1-2.8-8.8-3.6-2.1-.3-16.3-.5-17.7-.5s-.7.5-.7,1.3v32.3c0,.8,0,1.2.7,1.2s17.7,0,20.5-.3,4.8-.4,6-1.6,1.4-1.6,1.8-1.6.7.3.7,1a55,55,0,0,0-.9,6.6c-.3,2.4-.6,6.8-.6,7.7s-.3,2.2-1.1,2.2-.9-.4-.9-1.1a11.6,11.6,0,0,0-.5-3.9c-.4-1.7-1.6-3.1-6.3-3.7s-16.5-.5-18.6-.5-.8.4-.8.8v9.9c0,4.1-.2,17.9,0,20.3.3,7.9,2.5,9.5,14.6,9.5,3.3,0,9.1,0,12.3-1.3s4.9-3.5,5.6-8.2c.3-1.4.6-1.8,1.3-1.8s.8.9.8,1.8a99,99,0,0,1-1.7,11.4c-.8,3.1-2.1,3.1-6.8,3.1-9.2,0-16.3-.3-21.4-.4s-8.4-.3-10.2-.3l-5.3.2-7.1.2c-1.3,0-2-.2-2-.9a.9.9,0,0,1,1-1,25,25,0,0,0,3.8-.6c2.4-.4,2.6-2.8,3.2-6.3s.7-14.2.7-25.7Z"/><path class="cls-1" d="M960.2,453.9c0,17.5.3,24.6,2.6,26.7s6.7,2.8,16.3,2.8c6.4,0,11.9-.2,14.8-3.6a15.3,15.3,0,0,0,2.9-6.8c.2-.8.6-1.5,1.3-1.5s.8.6.8,1.8a71.8,71.8,0,0,1-1.8,11.9c-.8,2.8-1.2,3.2-7.8,3.2-8.8,0-15.7-.1-21.4-.4l-13.4-.3c-.5,0-2.6,0-5,.2l-7.1.2c-1.3,0-2-.2-2-.9a.9.9,0,0,1,1-1,17.6,17.6,0,0,0,3.8-.6c2.3-.5,2.6-2.8,3.2-6.3s.7-14.2.7-25.7V432.7c0-18.5,0-21.8-.3-25.6s-1-6-5-6.5a28.6,28.6,0,0,0-4.2-.3,1.2,1.2,0,0,1-1-1c0-.7.5-1,1.9-1,5.6,0,13.3.3,14,.3l13.6-.3c1.2,0,1.9.3,1.9,1a1,1,0,0,1-1,.8l-4,.3c-3.6.7-4.3,2.5-4.6,6.7s-.2,7.1-.2,25.6Z"/><path class="cls-1" d="M358.8,501.6c1.7-4.6,2.3-5.4,3.1-5.4s1.4.7,3.1,5,24,63,32.5,84.2c5,12.5,9.1,14.7,12,15.5a18.4,18.4,0,0,0,5.6.9c.8,0,1.4.1,1.4.8s-1.3,1.1-2.8,1.1-12.3,0-21.9-.2c-2.7-.2-4.2-.2-4.2-1s.4-.9,1-1,1.6-1.5.8-3.8l-13-34.3c-.3-.6-.5-.9-1.2-.9H345.1c-.7,0-1.1.5-1.4,1.2l-8.3,24.7a28.4,28.4,0,0,0-2,9.3c0,2.8,2.9,4.1,5.3,4.1h1.4c1,0,1.4.3,1.4.8s-.8,1.1-2.1,1.1c-3.4,0-9.4-.4-10.9-.4s-9.2.4-15.8.4c-1.8,0-2.6-.2-2.6-1.1s.5-.8,1.2-.8l4.1-.3c6.4-.8,9.2-6.1,11.7-13.1Zm14.5,55.9c.7,0,.7-.4.6-1l-13.3-37.7q-1.1-3.1-2.1,0l-12.3,37.7c-.2.7,0,1,.5,1Z"/><path class="cls-1" d="M438.4,587.5c.3,9.8,1.4,12.7,4.8,13.6a33.2,33.2,0,0,0,6.1.7.9.9,0,0,1,1,1c0,.7-.8.9-2.2.9-7,0-11.9-.4-13-.4s-6.3.4-11.9.4c-1.3,0-2-.1-2-.9a1,1,0,0,1,1-1,23.3,23.3,0,0,0,5.1-.7c3-.9,3.4-4.1,3.4-14.8v-68c0-4.8.7-6,1.7-6s3.5,2.3,4.8,3.6S457,536.8,476,556.4c12.2,12.6,25.3,26.7,29.1,30.6l-1.3-59.5c-.1-7.7-.8-10.4-4.6-11.1a39.5,39.5,0,0,0-6-.5c-.9,0-1-.7-1-1.1s1-.9,2.4-.9c5.6,0,11.4.3,12.8.3s5.5-.3,10.5-.3c1.3,0,2.2.2,2.2.9a1.3,1.3,0,0,1-1.4,1.1,13,13,0,0,0-2.9.3c-4,.8-4.3,3.2-4.3,10.3l-.3,69.6c0,7.8-.1,8.5-1,8.5s-2.5-1-9.3-7.3c-1.3-1.1-19-18.6-32-32.1s-28.1-29.5-31.9-33.7Z"/><path class="cls-1" d="M576.4,569.2c0,11.5,0,20.9.6,25.7s1,5.8,4.7,6.3a44.8,44.8,0,0,0,5.6.6c.9,0,1,.5,1,1s-.6.9-2,.9c-6.7,0-14.5-.4-15.2-.4s-9.1.4-12.7.4c-1.4,0-1.9-.2-1.9-.9a.8.8,0,0,1,.9-.9,25.2,25.2,0,0,0,3.7-.5c2.5-.6,3.2-3,3.6-6.5s.6-14.2.6-25.7V519.4l-17.8.3c-7.7.1-10.6.9-12.4,3.7a20.3,20.3,0,0,0-2,3.8c-.3,1-.7,1.1-1.2,1.1a1,1,0,0,1-.9-1c0-1.2,2.4-11.8,2.7-12.8s.8-2.2,1.2-2.2,2.1.9,5.5,1.3a81.6,81.6,0,0,0,9.6.6h46.4a58,58,0,0,0,8.8-.6l3.5-.5c.5,0,.5.7.5,1.4,0,3.6-.4,12.1-.4,13.5s-.5,1.6-1.1,1.6-.8-.4-1-2.1v-1.3c-.4-3.6-3.1-6.3-14.8-6.5l-15.4-.3Z"/><path class="cls-1" d="M709.8,569.2c0,11.5.2,20.9.7,25.7s.7,5.8,4.5,6.3a44.1,44.1,0,0,0,5.4.6c.9,0,1.1.5,1.1,1s-.7.9-2.1.9c-6.7,0-14.5-.4-15.2-.4s-8.5.4-12.1.4c-1.4,0-2-.2-2-.9a.9.9,0,0,1,1-1,15.1,15.1,0,0,0,3.6-.6c2.5-.5,3-2.9,3.4-6.4s.5-13.8.5-25.3V557.6c0-.5-.2-.7-.7-.7H646.7a.6.6,0,0,0-.7.7v11.9c0,11.5,0,20.6.5,25.4s.9,5.8,4.5,6.3a46.9,46.9,0,0,0,5.6.6.9.9,0,0,1,1,1c0,.5-.6.9-2,.9-6.8,0-14.7-.4-15.2-.4s-8.5.4-12.3.4c-1.3,0-2-.2-2-.9a.9.9,0,0,1,1-1,16.7,16.7,0,0,0,3.8-.6c2.4-.5,2.6-2.8,3.2-6.3s.7-14.2.7-25.7V548.3c0-18.5,0-21.8-.3-25.6s-1-6-5-6.5a28.6,28.6,0,0,0-4.2-.3,1.3,1.3,0,0,1-1-1c0-.7.6-1,2-1,5.6,0,13.4.3,14.1.3l12.1-.3c1.4,0,2,.3,2,1a1.3,1.3,0,0,1-1,1,13.2,13.2,0,0,0-3.1.3c-3.3.7-4,2.3-4.3,6.5s-.1,7.4-.1,25.9v2.5c0,.7.3.7.7.7h51.2c.5,0,.7,0,.7-.7v-2.5c0-18.5-.1-22.1-.2-25.9s-.9-6-4.9-6.5a28.6,28.6,0,0,0-4.2-.3,1.1,1.1,0,0,1-1-1c0-.7.6-1,2-1,5.4,0,13.4.3,13.9.3l12.2-.3c1.4,0,2.1.3,2.1,1a1.3,1.3,0,0,1-1.1,1,13.2,13.2,0,0,0-3.1.3c-3.2.7-3.9,2.3-4.2,6.5s-.3,7.1-.3,25.6Z"/><path class="cls-1" d="M785.9,512.3c27.7,0,48.6,16.9,48.6,44.5s-19.7,48.5-49.3,48.5c-33.6,0-48-25.3-48-46.7C737.2,539.5,752,512.3,785.9,512.3Zm2.8,88.1c11.1,0,33.3-5.9,33.3-40.2,0-28.5-17.4-43.5-36.8-43.5s-35.3,12.9-35.3,38.7C749.9,583.1,766.5,600.4,788.7,600.4Z"/><path class="cls-1" d="M865.4,587.5c.3,9.8,1.4,12.7,4.8,13.6a33.2,33.2,0,0,0,6.1.7.9.9,0,0,1,1,1c0,.7-.9.9-2.3.9-6.9,0-11.8-.4-13-.4s-6.2.4-11.8.4c-1.3,0-2-.1-2-.9a.9.9,0,0,1,1-1,21.8,21.8,0,0,0,5-.7c3.1-.9,3.5-4.1,3.5-14.8v-68c0-4.8.7-6,1.7-6s3.5,2.3,4.7,3.6S884,536.8,903,556.4c12.1,12.6,25.3,26.7,29,30.6l-1.2-59.5c-.2-7.7-.9-10.4-4.6-11.1a41.5,41.5,0,0,0-6-.5c-.9,0-1-.7-1-1.1s1-.9,2.4-.9c5.5,0,11.4.3,12.8.3s5.5-.3,10.5-.3c1.2,0,2.2.2,2.2.9a1.3,1.3,0,0,1-1.4,1.1,13,13,0,0,0-2.9.3c-4.1.8-4.3,3.2-4.3,10.3l-.3,69.6c0,7.8-.2,8.5-1,8.5s-2.5-1-9.4-7.3c-1.2-1.1-19-18.6-31.9-32.1s-28.1-29.5-31.9-33.7Z"/><path class="cls-1" d="M990.5,572.9c0-6.5-.8-8.8-2.6-12.2-1-1.8-17.6-28.2-21.8-34.5a29.5,29.5,0,0,0-8.1-8.6,11.1,11.1,0,0,0-5.2-1.7,1.2,1.2,0,0,1-1.2-1.1c0-.6.4-.9,1.5-.9l12.2.3c.8,0,5.8-.3,10.6-.3,1.4,0,1.7.3,1.7.9s-.9.8-2,1.2a2,2,0,0,0-1.5,2,9.8,9.8,0,0,0,1.6,4.6l22.4,37c2.5-5,17.9-30.4,20.1-34.4a12.9,12.9,0,0,0,2.1-6.1c0-1.7-.6-2.7-2-3.1s-1.8-.8-1.8-1.4.7-.7,2-.7c3.2,0,7.5.3,8.5.3l12-.3c.9,0,1.6.3,1.6.7a1.5,1.5,0,0,1-1.6,1.3,12.4,12.4,0,0,0-5.7,1.5c-2.4,1.4-3.5,2.7-6.2,5.9-4,4.7-21.3,32.7-23.8,37.7s-1.6,8-1.6,11.9v10.2c0,1.9,0,7,.4,11.8s1.2,5.8,4.8,6.3a44.8,44.8,0,0,0,5.6.6.9.9,0,0,1,1,1c0,.5-.7.9-2,.9-6.8,0-14.8-.4-15.5-.4s-8.4.4-12,.4c-1.4,0-2-.2-2-.9a.9.9,0,0,1,1-1,15.1,15.1,0,0,0,3.6-.6c2.6-.5,3.4-2.8,3.7-6.3s.2-9.9.2-11.8Z"/></svg>