<svg id="Layer_1" data-name="Layer 1" xmlns="http://www.w3.org/2000/svg" xmlns:xlink="http://www.w3.org/1999/xlink" viewBox="0 0 56.7 63"><defs><style>.cls-1{fill:url(#linear-gradient);}.cls-2{fill:none;}.cls-3{clip-path:url(#clip-path);}.cls-4{fill:url(#linear-gradient-3);}.cls-5{fill:#ec2027;fill-rule:evenodd;}.cls-6{clip-path:url(#clip-path-2);}.cls-7{fill:url(#linear-gradient-4);}.cls-8{clip-path:url(#clip-path-3);}.cls-9{fill:url(#linear-gradient-5);}.cls-10{clip-path:url(#clip-path-4);}.cls-11{fill:url(#linear-gradient-6);}</style><linearGradient id="linear-gradient" x1="35.53" y1="31.33" x2="51.47" y2="31.33" gradientUnits="userSpaceOnUse"><stop offset="0" stop-color="#b1b1b1"/><stop offset="0.17" stop-color="#aeaeae"/><stop offset="0.33" stop-color="#a3a3a3"/><stop offset="0.47" stop-color="#919191"/><stop offset="0.61" stop-color="#787878"/><stop offset="0.74" stop-color="#585858"/><stop offset="0.87" stop-color="#303030"/><stop offset="1" stop-color="#020202"/><stop offset="1"/></linearGradient><clipPath id="clip-path"><path class="cls-1" d="M47.1,18l1.2-1.9A24.3,24.3,0,0,1,36.4,47.6l-.9,3.1A24.7,24.7,0,0,0,51.4,29.4a23.8,23.8,0,0,0-2.9-13.5l2.7.2L46.3,12Z"/></clipPath><linearGradient id="linear-gradient-3" x1="35.53" y1="31.33" x2="51.76" y2="31.33" xlink:href="#linear-gradient"/><clipPath id="clip-path-2"><path class="cls-2" d="M28.4,26.7c2,4.3,1.5,4.8-.3,9.1-2.7,6.2-6,17.2-8.4,23.3,5-9.9,17.6-36.1,11.5-7.9A106.3,106.3,0,0,0,37,33.4l.7.4.8-1.3h-.1l-.7.8-1.7-1c-1.7-2.9-.1-5.5-2.9-9.2-3.4.4-7.8-3-14.4-11.7,3.3,5.2,7.1,9.9,9.7,15.4"/></clipPath><linearGradient id="linear-gradient-4" x1="-115.51" y1="129.95" x2="-114.51" y2="129.95" gradientTransform="matrix(0, -43.09, -43.09, 0, 5628.5, -4920.86)" gradientUnits="userSpaceOnUse"><stop offset="0" stop-color="#231f20"/><stop offset="1" stop-color="#a7a9ac"/></linearGradient><clipPath id="clip-path-3"><path class="cls-2" d="M34,22.8c2,2.1,2.4,5.6,3.7,7.9,2.2-9,4-18.3,5.4-24.8-3,9.2-5.4,15.7-9.1,16.9"/></clipPath><linearGradient id="linear-gradient-5" x1="-115.52" y1="129.95" x2="-114.52" y2="129.95" gradientTransform="matrix(0, -22.31, -22.31, 0, 2937.9, -2547.92)" xlink:href="#linear-gradient-4"/><clipPath id="clip-path-4"><path class="cls-2" d="M29.6,17.8c0,2.1,1.3,4,3,4.3s3.2-1.3,3.2-3.4-1.2-4-2.9-4.3h-.4c-1.5,0-2.8,1.5-2.9,3.4"/></clipPath><linearGradient id="linear-gradient-6" x1="-115.57" y1="129.95" x2="-114.57" y2="129.95" gradientTransform="matrix(0, -6.94, -6.94, 0, 933.99, -779.79)" xlink:href="#linear-gradient-4"/></defs><title>Artboard 1</title><path class="cls-1" d="M47.1,18l1.2-1.9A24.3,24.3,0,0,1,36.4,47.6l-.9,3.1A24.7,24.7,0,0,0,51.4,29.4a23.8,23.8,0,0,0-2.9-13.5l2.7.2L46.3,12Z"/><g class="cls-3"><rect class="cls-4" x="35.5" y="12" width="16.2" height="38.75"/></g><path class="cls-5" d="M33.6,8.4l1.6-1.3A21.5,21.5,0,0,0,9.4,33.6a22.6,22.6,0,0,0,5.7,10l.6,2.2A22.5,22.5,0,0,1,7.2,33.4,22,22,0,0,1,23,6.5a22.3,22.3,0,0,1,12.3.3l-.6-2.2,4.4,3.5Z"/><g class="cls-6"><rect class="cls-7" x="18.7" y="11.3" width="19.8" height="47.88"/></g><g class="cls-8"><rect class="cls-9" x="34" y="5.9" width="9.1" height="24.79"/></g><g class="cls-10"><rect class="cls-11" x="29.6" y="14.4" width="6.4" height="7.93"/></g></svg>